<svg version="1.1" xmlns="http://www.w3.org/2000/svg" xmlns:xlink="http://www.w3.org/1999/xlink" width="166.27758" height="112.99433" viewBox="0,0,166.27758,112.99433"><g transform="translate(-146.81282,-117.55058)"><g data-paper-data="{&quot;isPaintingLayer&quot;:true}" stroke-miterlimit="10" stroke-dasharray="" stroke-dashoffset="0" style="mix-blend-mode: normal"><g data-paper-data="{&quot;index&quot;:null}" fill-rule="evenodd"><path d="M291.37692,203.96706c2.40738,-0.46314 5.31931,-1.21858 7.75277,-3.38152c5.57449,-4.81509 7.3985,-12.88807 11.16585,-10.73004c3.86734,2.15956 3.56647,15.25648 -8.69343,19.06894c-4.22098,1.33543 -8.02053,1.27716 -11.11863,1.12964c-0.79991,-0.01227 -7.68836,-0.81799 -10.03594,-4.25439c-2.34758,-3.4364 -0.63398,-4.31023 0.17206,-4.69791c0.90756,-0.48614 7.34853,3.41308 10.75733,2.86529z" fill="#b123ca" stroke="#001026" stroke-width="1.2" stroke-linecap="round" stroke-linejoin="round"/><path d="M309.69254,190.04628c1.99056,0.63059 2.92604,4.84544 1.87249,8.3297c-1.05355,3.48425 -2.68097,5.25951 -4.00074,6.53942c0.21071,-0.69685 0.6444,-2.89046 -1.03546,-4.21637c-2.07369,-1.732 -5.78706,-0.88884 -5.78706,-0.88884c0,0 3.1579,-3.75201 4.79912,-6.42717c1.63508,-2.27519 2.15803,-3.76736 4.15165,-3.33673z" fill="#ffffff" stroke="none" stroke-width="1" stroke-linecap="butt" stroke-linejoin="miter"/></g><path d="M275.26655,204.52009c3.74863,-3.14289 8.29136,0.62721 10.26812,2.15771c1.97677,1.53049 2.96284,2.44572 7.2286,4.7114c1.686,0.92596 3.87347,1.75961 5.0672,2.17796c0.49841,0.10765 0.99835,0.11532 1.50136,-0.07698c0.90603,-0.38615 2.61656,-1.06 4.49487,0.36896c4.14277,3.76397 -5.97228,17.7105 -11.24558,15.92943c-5.47328,-1.78414 -2.30004,-6.53604 -0.56344,-8.90969c0.20611,-0.39688 0.01381,-0.8999 -0.38461,-1.00602l-0.39842,-0.10612c-7.86073,-2.62085 -13.99254,-7.11541 -15.77393,-8.34286c-1.6814,-1.22593 -3.43518,-4.25317 -0.19416,-6.90379z" data-paper-data="{&quot;index&quot;:null}" fill="#b123ca" fill-rule="evenodd" stroke="#001026" stroke-width="1.2" stroke-linecap="round" stroke-linejoin="round"/><path d="M265.05025,192.46201c-0.03987,2.5997 -2.18102,5.26718 -3.40542,6.84858c-1.2244,1.58141 -6.9142,7.39485 -13.76586,4.1894c-2.87666,-1.5443 -9.58999,-7.24791 -5.93981,-10.49232c3.65018,-3.24441 6.88692,0.90571 9.25443,3.04226c1.97216,1.83046 8.18185,-5.27516 8.68792,-5.66744c1.7228,-1.47375 5.11167,-0.7217 5.16872,2.0795z" data-paper-data="{&quot;index&quot;:null}" fill="#b123ca" fill-rule="evenodd" stroke="#001026" stroke-width="1.2" stroke-linecap="round" stroke-linejoin="round"/><g data-paper-data="{&quot;index&quot;:null}" fill-rule="evenodd"><path d="M267.03531,206.49411c-1.18606,-0.9183 -2.36292,-2.43652 -3.92746,-4.76078c-1.27071,-1.91971 -2.61381,-5.64075 -2.61381,-5.64075c-0.86156,-2.5135 -1.38788,-7.32214 1.91019,-7.17155c2.19821,0.13372 4.20258,-0.13557 7.60984,-0.58338c6.01769,-1.10785 7.12983,-1.89089 9.56667,2.24696c2.62608,4.84084 9.4716,8.44623 0.84533,16.61491c0,0 -4.95769,3.72441 -10.94594,9.43326c-4.05934,3.83821 -10.44446,9.34094 -12.67334,11.20698c-0.50607,0.39229 -1.10908,0.58306 -1.71053,0.67384c-9.71266,0.75115 -16.89648,-0.35913 -16.83054,-4.65863c0.1104,-7.19916 14.37039,-4.48017 14.37039,-4.48017c0,0 4.65926,-3.82901 6.78815,-5.69658z" fill="#b123ca" stroke="#001026" stroke-width="1.2" stroke-linecap="round" stroke-linejoin="round"/><path d="M262.73857,199.72742c0,0 -1.86144,-2.52884 2.47945,-5.16258c4.54394,-2.83066 6.19468,0.39504 7.95766,2.82236c1.95223,3.1303 -0.07053,4.59946 -2.09791,6.36858c-1.62282,1.47529 -3.14104,2.65215 -3.14104,2.65215c0,0 -3.06743,-2.14729 -5.19817,-6.68049z" fill="#ffffff" stroke="none" stroke-width="1" stroke-linecap="butt" stroke-linejoin="miter"/></g><path d="M283.08525,196.83908c-1.08914,-0.71679 -2.57056,-1.93965 -4.05352,-3.06252c-2.47211,-1.83812 -6.01035,-5.89285 -0.98333,-7.61598c4.02253,-1.43849 7.57917,1.41639 11.83113,4.58196c2.17368,1.73354 4.7427,3.77317 3.79527,6.859c-1.05355,3.48425 -6.10632,13.40794 -11.95503,10.01785c-4.25503,-2.9656 -0.80175,-6.41304 1.44092,-9.17899c0.30763,-0.49534 0.21684,-1.09681 -0.07546,-1.60134z" data-paper-data="{&quot;index&quot;:null}" fill="#b123ca" fill-rule="evenodd" stroke="#001026" stroke-width="1.2" stroke-linecap="round" stroke-linejoin="round"/><g data-paper-data="{&quot;index&quot;:null}" fill-rule="evenodd"><path d="M261.17425,138.69626c2.30586,-0.36469 4.70865,-0.52785 7.50525,-0.28495c4.69638,0.27205 9.16979,2.04085 9.16979,2.04085l12.21972,-7.71353c0.40302,-0.19385 0.89836,0.11378 0.79223,0.5122l-2.37424,17.8657c-0.58766,-0.80911 10.40248,12.96103 3.1285,24.25083c-7.27398,11.28978 -22.4504,16.15764 -41.19145,12.16979c-18.74105,-3.98784 -22.97493,-14.85405 -21.68767,-20.53498c1.28726,-5.68093 8.41863,-7.67181 8.41863,-7.67181c0,0 0.169,-4.49794 3.45295,-9.94823c1.95038,-3.27048 8.4217,-7.87179 8.4217,-7.87179l2.76377,-10.65887c0.10612,-0.39842 0.6076,-0.49074 0.90449,-0.28616z" fill="#b123ca" stroke="#001026" stroke-width="1.2" stroke-linecap="butt" stroke-linejoin="miter"/><path d="M253.87177,164.88735c8.38981,0.72874 20.028,-8.19385 26.56314,2.60763c6.53667,10.70149 -5.18279,24.92346 -29.30327,19.55296c-18.54261,-3.8848 -23.18411,-14.25719 -21.89683,-19.93811c1.28726,-5.68093 8.21406,-7.37491 8.21406,-7.37491c8.52814,-1.76944 9.23144,4.54209 16.42292,5.15244z" fill="#ffffff" stroke="none" stroke-width="1" stroke-linecap="butt" stroke-linejoin="miter"/><path d="M258.89359,183.0665c-10.50797,0.43892 -14.19251,-7.11847 -15.051,-9.83195c-0.19231,-0.503 0.21531,-0.99682 0.71372,-0.88916c1.49523,0.32296 4.69025,0.672 10.09422,0.45484c6.00542,-0.30795 11.42933,-1.82496 13.33984,-2.49573c0.40149,-0.09386 0.79684,0.21225 0.79071,0.61219c0.22483,4.90402 -0.7732,11.28948 -9.88747,12.14981z" fill="#ffffff" stroke="#001026" stroke-width="1.2" stroke-linecap="round" stroke-linejoin="round"/><path d="M230.87294,164.63466c0,0 -7.19762,-0.21039 -11.8388,-4.08202" fill="none" stroke="#001026" stroke-width="1.2" stroke-linecap="round" stroke-linejoin="round"/><path d="M230.38251,170.52784c0,0 -3.92868,1.83997 -10.22027,1.24343" fill="none" stroke="#001026" stroke-width="1.2" stroke-linecap="round" stroke-linejoin="round"/><path d="M258.89112,163.66419c-0.02453,1.59981 -4.26237,4.03511 -6.0591,3.80754c-1.59827,-0.12452 -3.05516,-2.9472 -2.93371,-4.3455c0.11072,-0.69839 2.31353,-0.86462 4.41328,-0.83243c1.99976,0.03067 4.69791,0.17206 4.57953,1.37039z" fill="#001026" stroke="#001026" stroke-width="1.2" stroke-linecap="round" stroke-linejoin="round"/><path d="M287.14025,167.19778c3.54712,-3.04596 12.18904,-5.71376 12.18904,-5.71376" fill="none" stroke="#001026" stroke-width="1.2" stroke-linecap="round" stroke-linejoin="round"/><path d="M298.47604,171.47211c0,0 -7.416,0.9864 -11.68942,-0.77934" fill="none" stroke="#001026" stroke-width="1.2" stroke-linecap="round" stroke-linejoin="round"/><g><path d="M253.16477,145.77427c2.77207,1.84273 2.59388,6.94059 -0.37478,11.39559c-3.06865,4.45347 -7.70032,6.48268 -10.47238,4.63996c-2.77207,-1.84273 -2.59388,-6.94059 0.37478,-11.39559c2.96866,-4.45501 7.70184,-6.58267 10.47238,-4.63996z" fill="#ffffff" stroke="#001026" stroke-width="1.2" stroke-linecap="round" stroke-linejoin="round"/><path d="M243.00494,156.11969c0.01687,-1.09987 0.83057,-1.98749 1.83046,-1.97216c0.99989,0.01533 1.78599,0.9275 1.76912,2.02737c-0.01687,1.09987 -0.83057,1.98749 -1.83046,1.97216c-0.99989,-0.01533 -1.78599,-0.9275 -1.76912,-2.02737" fill="#c92222" stroke="none" stroke-width="1" stroke-linecap="butt" stroke-linejoin="miter"/></g><g><path d="M278.31427,149.26033c3.0659,2.24728 2.77852,7.94354 -0.38859,12.29548c-3.06711,4.35348 -7.48807,5.68584 -10.75854,3.73547c-2.67055,-1.94118 -2.78772,-7.34361 0.2794,-11.6971c3.06711,-4.35348 7.80337,-6.68112 10.86773,-4.33387z" fill="#ffffff" stroke="#001026" stroke-width="1.2" stroke-linecap="round" stroke-linejoin="round"/><path d="M267.95753,159.40271c0.01687,-1.09987 0.82905,-1.88751 1.83046,-1.97216c0.99989,0.01533 1.78599,0.9275 1.76912,2.02737c-0.01687,1.09987 -0.83057,1.98749 -1.83046,1.97216c-0.99989,-0.01533 -1.78599,-0.9275 -1.76912,-2.02737" fill="#c92222" stroke="none" stroke-width="1" stroke-linecap="butt" stroke-linejoin="miter"/></g></g><path d="M290.77284,131.82756c1.763,3.64989 2.59316,7.80297 3.55219,11.7252c2.33511,-0.44856 4.6669,-0.92975 6.99759,-1.41483c0,0 2.44849,-0.50484 2.95334,1.94366c0.50484,2.44849 -1.94366,2.95334 -1.94366,2.95334c-13.00158,2.65238 -25.97306,5.17262 -39.37642,3.13542c-7.77739,-1.18209 -14.88847,-4.4857 -22.38135,-6.45665c-1.84342,-0.49631 -3.65924,-1.12159 -5.40443,-1.89538l-1.96814,-1.19533c0,0 -2.12376,-1.31896 -0.80479,-3.44272c1.31896,-2.12376 3.44272,-0.80479 3.44272,-0.80479l1.37006,0.87786c0.52689,0.23757 1.06214,0.45786 1.60382,0.66182c0.02469,-0.04062 0.03969,-0.0624 0.03969,-0.0624l0.59663,-0.85543c3.79057,-6.33215 4.42815,-12.95194 10.51249,-17.87777c7.52213,-3.55743 13.73181,-0.83079 18.68226,5.80975c0.6408,0.85956 0.47826,2.28848 1.34265,2.92273c0.42206,0.30968 0.60402,-0.89707 1.05443,-1.16385c0.74561,-0.44162 1.76102,-0.36263 2.43741,-0.90437c1.73919,-1.39298 1.75195,-4.73026 3.85749,-5.45951c3.984,-1.37985 5.18038,1.34514 7.11033,3.43757c2.39558,2.59723 4.7598,4.82381 6.32571,8.06569z" data-paper-data="{&quot;index&quot;:null}" fill="#bf5800" fill-rule="nonzero" stroke="none" stroke-width="0.5" stroke-linecap="butt" stroke-linejoin="miter"/><path d="M212.52723,196.23298c0,0 -0.14438,-0.30018 -0.21817,-0.7341c-1.16754,-0.00798 -2.33362,0.00042 -3.49687,0.03511c-3.45343,0.10297 -4.7224,0.83922 -7.88162,-0.68606c-2.15184,-1.03891 -6.21749,-4.6747 -5.63502,-7.38303c0.91625,-4.2603 9.44966,-2.63585 12.09556,-2.72746c10.98447,-0.38035 21.8365,-0.96577 32.83591,-0.79708c0,0 1.0354,0.01588 1.76323,0.69357c2.11564,0.02078 2.35787,2.23381 2.35787,2.23381c0.28049,3.20786 1.63839,4.31607 3.25948,7.16052c2.17575,3.8177 3.64443,7.15533 4.77135,11.35021c0.43053,1.60263 1.78099,3.20174 1.32766,4.79808c-1.10269,3.88285 -5.41579,3.84329 -8.26876,3.41301c-4.17407,-0.62953 -6.48726,-3.44844 -9.30793,-6.18361c-1.10855,-1.07495 -2.18527,-2.16416 -3.24782,-3.26135c-4.75096,0.33119 -10.19973,0.92036 -14.33994,-1.33884c-2.64408,-1.4428 -3.15656,-2.46837 -5.03165,-4.70065l-0.98326,-1.87208zM217.97965,195.62445c3.05243,3.28228 6.44478,3.83339 10.34838,3.74981c-0.50977,-0.53337 -1.02215,-1.06652 -1.53914,-1.59875l-0.69648,-1.70664c-1.02088,-0.07139 -2.0394,-0.17701 -3.05183,-0.31936c-1.68277,-0.02259 -3.37111,-0.07425 -5.06092,-0.12507z" data-paper-data="{&quot;index&quot;:null}" fill="#bfb9b4" fill-rule="nonzero" stroke="none" stroke-width="0.5" stroke-linecap="butt" stroke-linejoin="miter"/><path d="M261.02944,152.566c0.01916,-1.24985 1.26902,-1.23069 1.26902,-1.23069l0.51678,0.0322c5.45963,-1.00407 10.21797,-4.3887 15.94216,-4.35448c0,0 1.24985,0.01916 1.23069,1.26902c-0.01916,1.24985 -1.26902,1.23069 -1.26902,1.23069c-5.43057,-0.14949 -10.21943,3.34932 -15.45118,4.31345l-1.00776,0.00882c0,0 -1.24985,-0.01916 -1.23069,-1.26902z" data-paper-data="{&quot;index&quot;:null}" fill="#c72222" fill-rule="nonzero" stroke="none" stroke-width="0.5" stroke-linecap="butt" stroke-linejoin="miter"/><path d="M257.58815,152.25354l-0.1872,-0.2279c-4.31919,-2.988 -8.00978,-6.0762 -12.69685,-8.50367c0,0 -1.10934,-0.5761 -0.53324,-1.68542c0.5761,-1.10934 1.68542,-0.53324 1.68542,-0.53324c4.77528,2.48709 8.56239,5.64218 12.96314,8.66372l0.56339,0.54607c0,0 0.87023,0.89734 -0.02711,1.76756c-0.89734,0.87023 -1.76756,-0.02711 -1.76756,-0.02711z" data-paper-data="{&quot;index&quot;:null}" fill="#c72222" fill-rule="nonzero" stroke="none" stroke-width="0.5" stroke-linecap="butt" stroke-linejoin="miter"/><path d="M195.7107,183.21192c0.955,-0.47219 1.56128,0.46815 1.56128,0.46815l0.84493,1.34433c0.48357,1.97884 2.93925,6.0589 1.72789,8.01023c-1.955,3.14923 -3.3349,0.6416 -5.45719,1.91313c-1.01836,0.61014 -1.91857,1.4013 -2.9186,2.04101c-5.9461,3.80371 -10.11066,9.28539 -16.69558,11.08738l0.12494,0.39492l-2.27068,0.71839c-0.13282,0.04546 -0.27561,0.06915 -0.42405,0.06687c-0.69028,-0.01059 -1.24128,-0.57874 -1.23069,-1.26902c0.00524,-0.34185 0.14724,-0.64955 0.37309,-0.87178l1.21563,-1.19764c2.64449,-3.14845 5.6791,-6.06607 8.84198,-8.72828c-4.70445,1.58111 -9.64517,3.28668 -14.40107,3.19249l-0.00625,0.40745l-2.28681,-0.03507l0.00869,-0.56639c-0.38565,-0.05964 -0.76959,-0.13358 -1.15156,-0.22289l0.61305,-1.0267l-0.32122,-0.33122l1.16094,-1.12587l0.01877,0.01935l0.04705,-0.07877c2.22875,-1.62393 4.33704,-2.90753 6.64654,-4.08142c-3.99277,0.05168 -7.98931,0.15582 -11.98949,0.09447c-2.62352,-0.04023 -5.04414,0.04518 -7.49545,-0.35364l-0.00366,0.23863l-1.52454,-0.02338c-0.69028,-0.01059 -1.24128,-0.57874 -1.23069,-1.26902c0.00635,-0.41411 0.21337,-0.77809 0.52705,-1.00077l1.5303,-1.11148l0.0252,0.03468l0.08858,-0.10824c2.21042,-0.97275 4.41681,-1.93224 6.66017,-2.82701c2.75821,-1.09888 5.58967,-2.17321 8.52022,-2.69988c0.44643,-0.08023 0.98763,-0.30434 1.51146,-0.47927c-0.70679,-0.44764 -1.32716,-1.08967 -2.0542,-1.50989c-1.67876,-0.97031 -2.9101,-2.11762 -4.56809,-3.14375c-4.22536,-2.61509 -8.89923,-5.54452 -12.40182,-9.22995l-0.21898,0.2477l-1.86688,-1.65051c-0.26723,-0.23341 -0.43386,-0.57847 -0.42799,-0.96104c0.01059,-0.69028 0.57874,-1.24128 1.26902,-1.23069c0.09286,0.00142 0.18319,0.01294 0.26997,0.03348l1.8746,0.40491l-0.00083,0.00386l0.01367,-0.00102c2.47601,0.58956 4.90737,1.16945 7.33392,1.94086c9.96205,3.17139 20.5285,5.37928 29.86136,10.22237c2.4586,1.27584 5.95081,2.40144 8.27605,4.24986z" data-paper-data="{&quot;index&quot;:null}" fill="#fff713" fill-rule="nonzero" stroke="none" stroke-width="0.5" stroke-linecap="butt" stroke-linejoin="miter"/></g></g></svg>