<svg version="1.1" xmlns="http://www.w3.org/2000/svg" xmlns:xlink="http://www.w3.org/1999/xlink" width="117.95055" height="112.41269" viewBox="0,0,117.95055,112.41269"><g transform="translate(-192.32103,-117.92887)"><g data-paper-data="{&quot;isPaintingLayer&quot;:true}" stroke-miterlimit="10" stroke-dasharray="" stroke-dashoffset="0" style="mix-blend-mode: normal"><g fill-rule="evenodd"><path d="M224.70001,201.1c0.8,0.4 2.5,1.3 0.1,4.7c-2.4,3.4 -9.3,4.1 -10.1,4.1c-3.1,0.1 -6.9,0.1 -11.1,-1.3c-12.2,-4 -12.3,-17.1 -8.4,-19.2c3.8,-2.1 5.5,6 11,10.9c2.4,2.2 5.3,3 7.7,3.5c3.4,0.6 9.9,-3.2 10.8,-2.7z" fill="#ffab19" stroke="#001026" stroke-width="1.2" stroke-linecap="round" stroke-linejoin="round"/><path d="M199.90001,193c1.6,2.7 4.7,6.5 4.7,6.5c0,0 -3.7,-0.9 -5.8,0.8c-1.7,1.3 -1.3,3.5 -1.1,4.2c-1.3,-1.3 -2.9,-3.1 -3.9,-6.6c-1,-3.5 0,-7.7 2,-8.3c2,-0.4 2.5,1.1 4.1,3.4z" fill="#ffffff" stroke="none" stroke-width="1" stroke-linecap="butt" stroke-linejoin="miter"/></g><path d="M229.70001,211.5c-1.8,1.2 -8,5.6 -15.9,8.1l-0.4,0.1c-0.4,0.1 -0.6,0.6 -0.4,1c1.7,2.4 4.8,7.2 -0.7,8.9c-5.3,1.7 -15.2,-12.4 -11,-16.1c1.9,-1.4 3.6,-0.7 4.5,-0.3c0.5,0.2 1,0.2 1.5,0.1c1.2,-0.4 3.4,-1.2 5.1,-2.1c4.3,-2.2 5.3,-3.1 7.3,-4.6c2,-1.5 6.6,-5.2 10.3,-2c3.2,2.7 1.4,5.7 -0.3,6.9z" fill="#ffab19" fill-rule="evenodd" stroke="#001026" stroke-width="1.2" stroke-linecap="round" stroke-linejoin="round"/><path d="M245.60001,190.7c0.5,0.4 6.6,7.6 8.6,5.8c2.4,-2.1 5.7,-6.2 9.3,-2.9c3.6,3.3 -3.2,8.9 -6.1,10.4c-6.9,3.1 -12.5,-2.8 -13.7,-4.4c-1.2,-1.6 -3.3,-4.3 -3.3,-6.9c0.1,-2.8 3.5,-3.5 5.2,-2z" fill="#ffab19" fill-rule="evenodd" stroke="#001026" stroke-width="1.2" stroke-linecap="round" stroke-linejoin="round"/><g fill-rule="evenodd"><path d="M245.70001,214c2.1,1.9 6.7,5.8 6.7,5.8c0,0 14.3,-2.5 14.3,4.7c0,4.3 -7.2,5.3 -16.9,4.4c-0.6,-0.1 -1.2,-0.3 -1.7,-0.7c-2.2,-1.9 -8.5,-7.5 -12.5,-11.4c-5.9,-5.8 -10.8,-9.6 -10.8,-9.6c-8.5,-8.3 -1.6,-11.8 1.1,-16.6c2.5,-4.1 3.6,-3.3 9.6,-2.1c3.4,0.5 5.4,0.8 7.6,0.7c3.3,-0.1 2.7,4.7 1.8,7.2c0,0 -1.4,3.7 -2.7,5.6c-1.6,2.3 -2.8,3.8 -4,4.7z" fill="#ffab19" stroke="#001026" stroke-width="1.2" stroke-linecap="round" stroke-linejoin="round"/><path d="M237.30001,206.6c0,0 -1.5,-1.2 -3.1,-2.7c-2,-1.8 -4,-3.3 -2,-6.4c1.8,-2.4 3.5,-5.6 8,-2.7c4.3,2.7 2.4,5.2 2.4,5.2c-2.2,4.5 -5.3,6.6 -5.3,6.6z" fill="#ffffff" stroke="none" stroke-width="1" stroke-linecap="butt" stroke-linejoin="miter"/></g><path d="M222.20001,198.4c2.2,2.8 5.6,6.3 1.3,9.2c-5.9,3.3 -10.8,-6.7 -11.8,-10.2c-0.9,-3.1 1.7,-5.1 3.9,-6.8c4.3,-3.1 7.9,-5.9 11.9,-4.4c5,1.8 1.4,5.8 -1.1,7.6c-1.5,1.1 -3,2.3 -4.1,3c-0.3,0.5 -0.4,1.1 -0.1,1.6z" fill="#ffab19" fill-rule="evenodd" stroke="#001026" stroke-width="1.2" stroke-linecap="round" stroke-linejoin="round"/><g fill-rule="evenodd"><path d="M253.70001,131c0.3,-0.2 0.8,-0.1 0.9,0.3l2.6,10.7c0,0 6.4,4.7 8.3,8c3.2,5.5 3.3,10 3.3,10c0,0 7.1,2.1 8.3,7.8c1.2,5.7 -3.2,16.5 -22,20.2c-18.8,3.7 -33.9,-1.4 -41,-12.8c-7.1,-11.4 4.1,-25 3.5,-24.2l-2.1,-17.9c-0.1,-0.4 0.4,-0.7 0.8,-0.5l12.1,7.9c0,0 4.5,-1.7 9.2,-1.9c2.8,-0.2 5.2,0 7.5,0.4z" fill="#ffab19" stroke="#001026" stroke-width="1.2" stroke-linecap="butt" stroke-linejoin="miter"/><path d="M268.50001,160.39999c0,0 6.9,1.8 8.1,7.5c1.2,5.7 -3.6,16 -22.2,19.6c-24.2,5 -35.7,-9.4 -29,-20c6.7,-10.7 18.2,-1.6 26.6,-2.2c7.2,-0.5 8,-6.8 16.5,-4.9z" fill="#ffffff" stroke="none" stroke-width="1" stroke-linecap="butt" stroke-linejoin="miter"/><path d="M237.00001,171.1c0,-0.4 0.4,-0.7 0.8,-0.6c1.9,0.7 7.3,2.3 13.3,2.7c5.4,0.3 8.6,0 10.1,-0.3c0.5,-0.1 0.9,0.4 0.7,0.9c-0.9,2.7 -4.7,10.2 -15.2,9.6c-9.1,-1 -10,-7.4 -9.7,-12.3z" fill="#ffffff" stroke="#ffffff" stroke-width="1.2" stroke-linecap="round" stroke-linejoin="round"/><path d="M286.90001,161.5c-4.7,3.8 -11.9,3.9 -11.9,3.9" fill="none" stroke="#001026" stroke-width="1.2" stroke-linecap="round" stroke-linejoin="round"/><path d="M285.60001,172.7c-6.3,0.5 -10.2,-1.4 -10.2,-1.4" fill="none" stroke="#001026" stroke-width="1.2" stroke-linecap="round" stroke-linejoin="round"/><path d="M251.60001,162.7c2.1,0 4.3,0.2 4.4,0.9c0.1,1.4 -1.4,4.2 -3,4.3c-1.8,0.2 -6,-2.3 -6,-3.9c-0.1,-1.2 2.6,-1.3 4.6,-1.3z" fill="#001026" stroke="#001026" stroke-width="1.2" stroke-linecap="round" stroke-linejoin="round"/><path d="M206.60001,161.2c0,0 8.6,2.8 12.1,5.9" fill="none" stroke="#001026" stroke-width="1.2" stroke-linecap="round" stroke-linejoin="round"/><path d="M219.00001,170.6c-4.3,1.7 -11.7,0.6 -11.7,0.6" fill="none" stroke="#001026" stroke-width="1.2" stroke-linecap="round" stroke-linejoin="round"/><g><path d="M263.40001,151c2.9,4.5 3,9.6 0.2,11.4c-2.8,1.8 -7.4,-0.3 -10.4,-4.8c-2.9,-4.5 -3,-9.6 -0.2,-11.4c2.8,-1.9 7.5,0.3 10.4,4.8z" fill="#ffffff" stroke="#001026" stroke-width="1.2" stroke-linecap="round" stroke-linejoin="round"/><path d="M263.00001,156.7c0,1.1 -0.8,2 -1.8,2c-1,0 -1.8,-0.9 -1.8,-2c0,-1.1 0.8,-2 1.8,-2c1,0 1.8,0.9 1.8,2" fill="#001026" stroke="none" stroke-width="1" stroke-linecap="butt" stroke-linejoin="miter"/></g><g><path d="M238.60001,153.8c3,4.4 2.8,9.8 0.1,11.7c-3.3,1.9 -7.7,0.5 -10.7,-3.9c-3.1,-4.4 -3.3,-10.1 -0.2,-12.3c3.1,-2.3 7.8,0.1 10.8,4.5z" fill="#ffffff" stroke="#001026" stroke-width="1.2" stroke-linecap="round" stroke-linejoin="round"/><path d="M238.00001,159.6c0,1.1 -0.8,2 -1.8,2c-1,0 -1.8,-0.9 -1.8,-2c0,-1.1 0.8,-2 1.8,-2c1,0.1 1.8,0.9 1.8,2" fill="#001026" stroke="none" stroke-width="1" stroke-linecap="butt" stroke-linejoin="miter"/></g></g><path d="M215.61022,131.67822c1.61544,-3.21748 4.01353,-5.40755 6.44865,-7.96774c1.96182,-2.06259 3.19984,-4.76891 7.16221,-3.32813c2.09412,0.76145 2.05569,4.09854 3.77332,5.51802c0.668,0.55205 1.6845,0.48863 2.42325,0.94164c0.44627,0.27366 0.6097,1.48307 1.03646,1.17989c0.87402,-0.62093 0.73341,-2.05217 1.38731,-2.9018c5.0517,-6.56385 11.30246,-9.19494 18.76915,-5.52259c6.00809,5.01855 6.54409,11.64733 10.23711,18.03687l0.58344,0.86448c0,0 0.01467,0.02201 0.03873,0.063c0.54475,-0.19563 1.08331,-0.40769 1.61378,-0.63715l1.38336,-0.85675c0,0 2.14373,-1.28624 3.42997,0.85749c1.28624,2.14373 -0.85749,3.42997 -0.85749,3.42997l-1.98624,1.16501c-1.75686,0.74694 -3.58205,1.34431 -5.43286,1.81229c-7.52222,1.85582 -14.68313,5.05 -22.47773,6.11269c-13.43302,1.83143 -26.36433,-0.88743 -39.32371,-3.73886c0,0 -2.44047,-0.54233 -1.89814,-2.98279c0.54233,-2.44047 2.98279,-1.89814 2.98279,-1.89814c2.32298,0.52077 4.64711,1.03765 6.97507,1.52197c1.01906,-3.90706 1.91281,-8.04692 3.73157,-11.66935z" fill="#bf5800" fill-rule="nonzero" stroke="none" stroke-width="0.5" stroke-linecap="butt" stroke-linejoin="miter"/><path d="M292.85904,197.27593l-1.01185,1.85678c-1.9091,2.20327 -2.43725,3.22087 -5.10314,4.62295c-4.17436,2.19544 -9.61346,1.5228 -14.35878,1.11879c-1.07925,1.08078 -2.17255,2.15334 -3.29745,3.21117c-2.86228,2.6916 -5.21842,5.4747 -9.40166,6.04015c-2.85924,0.38648 -7.17244,0.35991 -8.21546,-3.5394c-0.42881,-1.6031 0.94602,-3.18131 1.40107,-4.77715c1.1911,-4.17711 2.7108,-7.49182 4.94483,-11.27571c1.66451,-2.81926 3.03924,-3.90652 3.36889,-7.1097c0,0 0.27613,-2.20905 2.39184,-2.19739c0.73814,-0.66645 1.77366,-0.66645 1.77366,-0.66645c11.00071,0 21.84248,0.75176 32.81983,1.3005c2.64418,0.13218 11.2015,-1.36123 12.05231,2.91262c0.54088,2.71695 -3.58005,6.28997 -5.74757,7.29576c-3.18223,1.47666 -4.43976,0.72103 -7.89121,0.56512c-1.16258,-0.05252 -2.32839,-0.0788 -3.49592,-0.08872c-0.08043,0.43274 -0.2294,0.73067 -0.2294,0.73067zM282.35433,196.63131c-1.0145,0.12681 -2.03452,0.2168 -3.05637,0.27252l-0.72257,1.69576c-0.52508,0.52424 -1.04558,1.04947 -1.56347,1.57496c3.90186,0.14343 7.30226,-0.3556 10.40466,-3.59069c-1.6904,0.0249 -3.37933,0.05066 -5.06225,0.04745z" fill="#bfb9b4" fill-rule="nonzero" stroke="none" stroke-width="0.5" stroke-linecap="butt" stroke-linejoin="miter"/><path d="M265.91,180.09098c-1.11803,0.55902 -1.67705,-0.55902 -1.67705,-0.55902l-0.6192,-1.24969c-1.45937,-2.03807 -3.34109,-1.42892 -5.67588,-1.42892c-6.39068,0 -11.73554,1.11183 -17.19637,4.52744c0,0 -1.06,0.6625 -1.7225,-0.3975c-0.6625,-1.06 0.3975,-1.7225 0.3975,-1.7225c5.85423,-3.65623 11.67847,-4.90744 18.52137,-4.90744c3.41139,0 5.52996,-0.33103 7.80251,2.6146l0.72864,1.44599c0,0 0.55902,1.11803 -0.55902,1.67705z" fill="#000000" fill-rule="nonzero" stroke="none" stroke-width="0.5" stroke-linecap="butt" stroke-linejoin="miter"/><path d="M241.31193,151.57204c1.11803,0.55902 0.55902,1.67705 0.55902,1.67705l-0.45499,0.8649c-1.13941,1.51361 -3.04217,2.9733 -3.95577,4.58331c-0.00121,0.00213 -0.00242,0.00426 -0.00363,0.00639c0.51001,0.22947 1.03289,0.41216 1.57777,0.52377l1.40109,0.84654c0,0 1.04006,0.69338 0.34669,1.73344c-0.69338,1.04006 -1.73344,0.34669 -1.73344,0.34669l-0.62067,-0.5013c-0.75569,-0.2102 -1.45671,-0.52889 -2.13167,-0.90111c-0.72573,1.23441 -1.48515,2.34355 -2.74656,3.60495c0,0 -0.88388,0.88388 -1.76777,0c-0.88388,-0.88388 0,-1.76777 0,-1.76777c1.15934,-1.15934 1.78753,-2.0938 2.39696,-3.15182c-1.45468,-0.94549 -2.93247,-1.86383 -4.75122,-2.14442c0,0 -1.23299,-0.2055 -1.02749,-1.43849c0.2055,-1.23299 1.43849,-1.02749 1.43849,-1.02749c2.0637,0.36437 3.75446,1.57342 5.43971,2.64975c0.00208,-0.00362 0.00416,-0.00725 0.00624,-0.01087c0.99994,-1.74118 2.91434,-3.22232 4.13127,-4.85156l0.21893,-0.48294c0,0 0.55902,-1.11803 1.67705,-0.55902z" fill="#000000" fill-rule="nonzero" stroke="none" stroke-width="0.5" stroke-linecap="butt" stroke-linejoin="miter"/><path d="M265.03347,151.98697c1.04006,0.69338 0.34669,1.73344 0.34669,1.73344l-0.59595,0.87652c-0.2874,0.57481 -0.58871,1.18351 -0.9113,1.79963c0.71145,0.58328 1.39027,1.18959 2.02499,1.81186l0.52228,0.03499c0,0 1.18585,0.39528 0.79057,1.58114c-0.39528,1.18585 -1.58114,0.79057 -1.58114,0.79057l-1.49948,-0.63893c-0.46694,-0.47936 -0.97227,-0.94812 -1.50589,-1.40236c-1.20203,1.87015 -2.69946,3.50517 -4.72018,4.08987c0,0 -1.21268,0.30317 -1.51585,-0.90951c-0.30317,-1.21268 0.90951,-1.51585 0.90951,-1.51585c1.33047,-0.24036 2.46641,-1.62143 3.3935,-3.16466c-1.39193,-0.98891 -2.87832,-1.87033 -4.32327,-2.59166c0,0 -1.11803,-0.55902 -0.55902,-1.67705c0.55902,-1.11803 1.67705,-0.55902 1.67705,-0.55902c1.48843,0.74532 2.97315,1.63601 4.38164,2.62741c0.2533,-0.51545 0.48034,-0.99414 0.6805,-1.39447l0.75189,-1.14524c0,0 0.69338,-1.04006 1.73344,-0.34669z" fill="#000000" fill-rule="nonzero" stroke="none" stroke-width="0.5" stroke-linecap="butt" stroke-linejoin="miter"/></g></g></svg>