<svg version="1.1" xmlns="http://www.w3.org/2000/svg" xmlns:xlink="http://www.w3.org/1999/xlink" width="117.95055" height="112.41269" viewBox="0,0,117.95055,112.41269"><g transform="translate(-192.92102,-117.92888)"><g data-paper-data="{&quot;isPaintingLayer&quot;:true}" stroke-miterlimit="10" stroke-dasharray="" stroke-dashoffset="0" style="mix-blend-mode: normal"><g data-paper-data="{&quot;index&quot;:null}" fill-rule="evenodd"><path d="M289.29259,203.8c2.4,-0.5 5.3,-1.3 7.7,-3.5c5.5,-4.9 7.2,-13 11,-10.9c3.9,2.1 3.8,15.2 -8.4,19.2c-4.2,1.4 -8,1.4 -11.1,1.3c-0.8,0 -7.7,-0.7 -10.1,-4.1c-2.4,-3.4 -0.7,-4.3 0.1,-4.7c0.9,-0.5 7.4,3.3 10.8,2.7z" fill="#b123ca" stroke="#001026" stroke-width="1.2" stroke-linecap="round" stroke-linejoin="round"/><path d="M307.39259,189.6c2,0.6 3,4.8 2,8.3c-1,3.5 -2.6,5.3 -3.9,6.6c0.2,-0.7 0.6,-2.9 -1.1,-4.2c-2.1,-1.7 -5.8,-0.8 -5.8,-0.8c0,0 3.1,-3.8 4.7,-6.5c1.6,-2.3 2.1,-3.8 4.1,-3.4z" fill="#ffffff" stroke="none" stroke-width="1" stroke-linecap="butt" stroke-linejoin="miter"/></g><path d="M273.19259,204.6c3.7,-3.2 8.3,0.5 10.3,2c2,1.5 3,2.4 7.3,4.6c1.7,0.9 3.9,1.7 5.1,2.1c0.5,0.1 1,0.1 1.5,-0.1c0.9,-0.4 2.6,-1.1 4.5,0.3c4.2,3.7 -5.7,17.8 -11,16.1c-5.5,-1.7 -2.4,-6.5 -0.7,-8.9c0.2,-0.4 0,-0.9 -0.4,-1l-0.4,-0.1c-7.9,-2.5 -14.1,-6.9 -15.9,-8.1c-1.7,-1.2 -3.5,-4.2 -0.3,-6.9z" data-paper-data="{&quot;index&quot;:null}" fill="#b123ca" fill-rule="evenodd" stroke="#001026" stroke-width="1.2" stroke-linecap="round" stroke-linejoin="round"/><path d="M262.79259,192.7c0,2.6 -2.1,5.3 -3.3,6.9c-1.2,1.6 -6.8,7.5 -13.7,4.4c-2.9,-1.5 -9.7,-7.1 -6.1,-10.4c3.6,-3.3 6.9,0.8 9.3,2.9c2,1.8 8.1,-5.4 8.6,-5.8c1.7,-1.5 5.1,-0.8 5.2,2z" data-paper-data="{&quot;index&quot;:null}" fill="#b123ca" fill-rule="evenodd" stroke="#001026" stroke-width="1.2" stroke-linecap="round" stroke-linejoin="round"/><g data-paper-data="{&quot;index&quot;:null}" fill-rule="evenodd"><path d="M264.99259,206.7c-1.2,-0.9 -2.4,-2.4 -4,-4.7c-1.3,-1.9 -2.7,-5.6 -2.7,-5.6c-0.9,-2.5 -1.5,-7.3 1.8,-7.2c2.2,0.1 4.2,-0.2 7.6,-0.7c6,-1.2 7.1,-2 9.6,2.1c2.7,4.8 9.6,8.3 1.1,16.6c0,0 -4.9,3.8 -10.8,9.6c-4,3.9 -10.3,9.5 -12.5,11.4c-0.5,0.4 -1.1,0.6 -1.7,0.7c-9.7,0.9 -16.9,-0.1 -16.9,-4.4c0,-7.2 14.3,-4.7 14.3,-4.7c0,0 4.6,-3.9 6.7,-5.8z" fill="#b123ca" stroke="#001026" stroke-width="1.2" stroke-linecap="round" stroke-linejoin="round"/><path d="M260.59259,200c0,0 -1.9,-2.5 2.4,-5.2c4.5,-2.9 6.2,0.3 8,2.7c2,3.1 0,4.6 -2,6.4c-1.6,1.5 -3.1,2.7 -3.1,2.7c0,0 -3.1,-2.1 -5.3,-6.6z" fill="#ffffff" stroke="none" stroke-width="1" stroke-linecap="butt" stroke-linejoin="miter"/></g><path d="M280.89259,196.8c-1.1,-0.7 -2.6,-1.9 -4.1,-3c-2.5,-1.8 -6.1,-5.8 -1.1,-7.6c4,-1.5 7.6,1.3 11.9,4.4c2.2,1.7 4.8,3.7 3.9,6.8c-1,3.5 -5.9,13.5 -11.8,10.2c-4.3,-2.9 -0.9,-6.4 1.3,-9.2c0.3,-0.5 0.2,-1.1 -0.1,-1.6z" data-paper-data="{&quot;index&quot;:null}" fill="#b123ca" fill-rule="evenodd" stroke="#001026" stroke-width="1.2" stroke-linecap="round" stroke-linejoin="round"/><g data-paper-data="{&quot;index&quot;:null}" fill-rule="evenodd"><path d="M258.09259,139c2.3,-0.4 4.7,-0.6 7.5,-0.4c4.7,0.2 9.2,1.9 9.2,1.9l12.1,-7.9c0.4,-0.2 0.9,0.1 0.8,0.5l-2.1,17.9c-0.6,-0.8 10.6,12.8 3.5,24.2c-7.1,11.4 -22.2,16.5 -41,12.8c-18.8,-3.7 -23.2,-14.5 -22,-20.2c1.2,-5.7 8.3,-7.8 8.3,-7.8c0,0 0.1,-4.5 3.3,-10c1.9,-3.3 8.3,-8 8.3,-8l2.6,-10.7c0.1,-0.4 0.6,-0.5 0.9,-0.3z" fill="#b123ca" stroke="#001026" stroke-width="1.2" stroke-linecap="butt" stroke-linejoin="miter"/><path d="M251.19259,165.29999c8.4,0.6 19.9,-8.5 26.6,2.2c6.7,10.6 -4.8,25 -29,20c-18.6,-3.6 -23.4,-13.9 -22.2,-19.6c1.2,-5.7 8.1,-7.5 8.1,-7.5c8.5,-1.9 9.3,4.4 16.5,4.9z" fill="#ffffff" stroke="none" stroke-width="1" stroke-linecap="butt" stroke-linejoin="miter"/><path d="M256.49259,183.4c-10.5,0.6 -14.3,-6.9 -15.2,-9.6c-0.2,-0.5 0.2,-1 0.7,-0.9c1.5,0.3 4.7,0.6 10.1,0.3c6,-0.4 11.4,-2 13.3,-2.7c0.4,-0.1 0.8,0.2 0.8,0.6c0.3,4.9 -0.6,11.3 -9.7,12.3z" fill="#ffffff" stroke="#001026" stroke-width="1.2" stroke-linecap="round" stroke-linejoin="round"/><path d="M228.19259,165.4c0,0 -7.2,-0.1 -11.9,-3.9" fill="none" stroke="#001026" stroke-width="1.2" stroke-linecap="round" stroke-linejoin="round"/><path d="M227.79259,171.3c0,0 -3.9,1.9 -10.2,1.4" fill="none" stroke="#001026" stroke-width="1.2" stroke-linecap="round" stroke-linejoin="round"/><path d="M256.19259,164c0,1.6 -4.2,4.1 -6,3.9c-1.6,-0.1 -3.1,-2.9 -3,-4.3c0.1,-0.7 2.3,-0.9 4.4,-0.9c2,0 4.7,0.1 4.6,1.3z" fill="#001026" stroke="#001026" stroke-width="1.2" stroke-linecap="round" stroke-linejoin="round"/><path d="M284.49259,167.1c3.5,-3.1 12.1,-5.9 12.1,-5.9" fill="none" stroke="#001026" stroke-width="1.2" stroke-linecap="round" stroke-linejoin="round"/><path d="M295.89259,171.2c0,0 -7.4,1.1 -11.7,-0.6" fill="none" stroke="#001026" stroke-width="1.2" stroke-linecap="round" stroke-linejoin="round"/><g><path d="M250.19259,146.2c2.8,1.8 2.7,6.9 -0.2,11.4c-3,4.5 -7.6,6.6 -10.4,4.8c-2.8,-1.8 -2.7,-6.9 0.2,-11.4c2.9,-4.5 7.6,-6.7 10.4,-4.8z" fill="#ffffff" stroke="#001026" stroke-width="1.2" stroke-linecap="round" stroke-linejoin="round"/><path d="M240.19259,156.7c0,-1.1 0.8,-2 1.8,-2c1,0 1.8,0.9 1.8,2c0,1.1 -0.8,2 -1.8,2c-1,0 -1.8,-0.9 -1.8,-2" fill="#c92222" stroke="none" stroke-width="1" stroke-linecap="butt" stroke-linejoin="miter"/></g><g><path d="M275.39259,149.3c3.1,2.2 2.9,7.9 -0.2,12.3c-3,4.4 -7.4,5.8 -10.7,3.9c-2.7,-1.9 -2.9,-7.3 0.1,-11.7c3,-4.4 7.7,-6.8 10.8,-4.5z" fill="#ffffff" stroke="#001026" stroke-width="1.2" stroke-linecap="round" stroke-linejoin="round"/><path d="M265.19259,159.6c0,-1.1 0.8,-1.9 1.8,-2c1,0 1.8,0.9 1.8,2c0,1.1 -0.8,2 -1.8,2c-1,0 -1.8,-0.9 -1.8,-2" fill="#c92222" stroke="none" stroke-width="1" stroke-linecap="butt" stroke-linejoin="miter"/></g></g><path d="M287.58238,131.67824c1.81876,3.62243 2.71251,7.76229 3.73157,11.66935c2.32796,-0.48432 4.65209,-1.0012 6.97507,-1.52197c0,0 2.44046,-0.54233 2.98279,1.89814c0.54233,2.44046 -1.89814,2.98279 -1.89814,2.98279c-12.95938,2.85143 -25.89069,5.57029 -39.32371,3.73886c-7.7946,-1.06269 -14.95551,-4.25687 -22.47773,-6.11269c-1.85081,-0.46798 -3.676,-1.06535 -5.43286,-1.81229l-1.98624,-1.16501c0,0 -2.14373,-1.28624 -0.85749,-3.42997c1.28624,-2.14373 3.42997,-0.85749 3.42997,-0.85749l1.38336,0.85675c0.53047,0.22946 1.06903,0.44152 1.61378,0.63715c0.02406,-0.04099 0.03873,-0.063 0.03873,-0.063l0.58344,-0.86448c3.69302,-6.38954 4.22902,-13.01832 10.23711,-18.03687c7.46669,-3.67235 13.71745,-1.04126 18.76915,5.52259c0.6539,0.84963 0.51329,2.28087 1.38731,2.9018c0.42676,0.30318 0.59019,-0.90623 1.03646,-1.17989c0.73875,-0.45301 1.75525,-0.38959 2.42325,-0.94164c1.71763,-1.41948 1.6792,-4.75657 3.77332,-5.51802c3.96237,-1.44078 5.20039,1.26554 7.16221,3.32813c2.43512,2.56019 4.83321,4.75026 6.44865,7.96774z" data-paper-data="{&quot;index&quot;:null}" fill="#bf5800" fill-rule="nonzero" stroke="none" stroke-width="0.5" stroke-linecap="butt" stroke-linejoin="miter"/><path d="M210.33357,197.27592c0,0 -0.14897,-0.29793 -0.2294,-0.73067c-1.16753,0.00992 -2.33334,0.0362 -3.49592,0.08872c-3.45145,0.15591 -4.70898,0.91154 -7.89121,-0.56512c-2.16752,-1.00579 -6.28845,-4.57881 -5.74757,-7.29576c0.85081,-4.27385 9.40813,-2.78044 12.05231,-2.91262c10.97735,-0.54874 21.81912,-1.3005 32.81983,-1.3005c0,0 1.03552,0 1.77366,0.66645c2.11571,-0.01166 2.39184,2.19739 2.39184,2.19739c0.32965,3.20318 1.70438,4.29044 3.36889,7.1097c2.23403,3.78389 3.75373,7.0986 4.94483,11.27571c0.45505,1.59584 1.82988,3.17405 1.40107,4.77715c-1.04302,3.89931 -5.35622,3.92588 -8.21546,3.5394c-4.18324,-0.56545 -6.53938,-3.34855 -9.40166,-6.04015c-1.1249,-1.05783 -2.2182,-2.13039 -3.29745,-3.21117c-4.74532,0.40401 -10.18442,1.07665 -14.35878,-1.11879c-2.66589,-1.40208 -3.19404,-2.41968 -5.10314,-4.62295l-1.01185,-1.85678zM215.77602,196.58386c3.1024,3.23509 6.5028,3.73412 10.40466,3.59069c-0.51789,-0.52549 -1.03839,-1.05072 -1.56347,-1.57496l-0.72257,-1.69576c-1.02185,-0.05572 -2.04187,-0.14571 -3.05637,-0.27252c-1.68292,0.00321 -3.37185,-0.02255 -5.06225,-0.04745z" data-paper-data="{&quot;index&quot;:null}" fill="#bfb9b4" fill-rule="nonzero" stroke="none" stroke-width="0.5" stroke-linecap="butt" stroke-linejoin="miter"/><path d="M258.16048,152.87034c0,-1.25 1.25,-1.25 1.25,-1.25l0.51721,0.02427c5.44359,-1.08767 10.14947,-4.54487 15.87351,-4.59843c0,0 1.25,0 1.25,1.25c0,1.25 -1.25,1.25 -1.25,1.25c-5.43222,-0.0662 -10.16687,3.50564 -15.38322,4.54988l-1.0075,0.02427c0,0 -1.25,0 -1.25,-1.25z" data-paper-data="{&quot;index&quot;:null}" fill="#c72222" fill-rule="nonzero" stroke="none" stroke-width="0.5" stroke-linecap="butt" stroke-linejoin="miter"/><path d="M254.7148,152.61068l-0.19067,-0.225c-4.3645,-2.92142 -8.10202,-5.95266 -12.82575,-8.30798c0,0 -1.11804,-0.55902 -0.55902,-1.67705c0.55902,-1.11804 1.67705,-0.55902 1.67705,-0.55902c4.81286,2.41357 8.64791,5.51022 13.09447,8.46392l0.57169,0.53736c0,0 0.88388,0.88389 0,1.76777c-0.88389,0.88388 -1.76777,0 -1.76777,0z" data-paper-data="{&quot;index&quot;:null}" fill="#c72222" fill-rule="nonzero" stroke="none" stroke-width="0.5" stroke-linecap="butt" stroke-linejoin="miter"/></g></g></svg>