<svg version="1.1" xmlns="http://www.w3.org/2000/svg" xmlns:xlink="http://www.w3.org/1999/xlink" width="166.6838" height="112.41269" viewBox="0,0,166.6838,112.41269"><g transform="translate(-192.32103,-117.92887)"><g data-paper-data="{&quot;isPaintingLayer&quot;:true}" stroke-miterlimit="10" stroke-dasharray="" stroke-dashoffset="0" style="mix-blend-mode: normal"><g fill-rule="evenodd"><path d="M224.70001,201.1c0.8,0.4 2.5,1.3 0.1,4.7c-2.4,3.4 -9.3,4.1 -10.1,4.1c-3.1,0.1 -6.9,0.1 -11.1,-1.3c-12.2,-4 -12.3,-17.1 -8.4,-19.2c3.8,-2.1 5.5,6 11,10.9c2.4,2.2 5.3,3 7.7,3.5c3.4,0.6 9.9,-3.2 10.8,-2.7z" fill="#b123ca" stroke="#001026" stroke-width="1.2" stroke-linecap="round" stroke-linejoin="round"/><path d="M199.90001,193c1.6,2.7 4.7,6.5 4.7,6.5c0,0 -3.7,-0.9 -5.8,0.8c-1.7,1.3 -1.3,3.5 -1.1,4.2c-1.3,-1.3 -2.9,-3.1 -3.9,-6.6c-1,-3.5 0,-7.7 2,-8.3c2,-0.4 2.5,1.1 4.1,3.4z" fill="#ffffff" stroke="none" stroke-width="1" stroke-linecap="butt" stroke-linejoin="miter"/></g><path d="M229.70001,211.5c-1.8,1.2 -8,5.6 -15.9,8.1l-0.4,0.1c-0.4,0.1 -0.6,0.6 -0.4,1c1.7,2.4 4.8,7.2 -0.7,8.9c-5.3,1.7 -15.2,-12.4 -11,-16.1c1.9,-1.4 3.6,-0.7 4.5,-0.3c0.5,0.2 1,0.2 1.5,0.1c1.2,-0.4 3.4,-1.2 5.1,-2.1c4.3,-2.2 5.3,-3.1 7.3,-4.6c2,-1.5 6.6,-5.2 10.3,-2c3.2,2.7 1.4,5.7 -0.3,6.9z" fill="#b123ca" fill-rule="evenodd" stroke="#001026" stroke-width="1.2" stroke-linecap="round" stroke-linejoin="round"/><path d="M245.60001,190.7c0.5,0.4 6.6,7.6 8.6,5.8c2.4,-2.1 5.7,-6.2 9.3,-2.9c3.6,3.3 -3.2,8.9 -6.1,10.4c-6.9,3.1 -12.5,-2.8 -13.7,-4.4c-1.2,-1.6 -3.3,-4.3 -3.3,-6.9c0.1,-2.8 3.5,-3.5 5.2,-2z" fill="#b123ca" fill-rule="evenodd" stroke="#001026" stroke-width="1.2" stroke-linecap="round" stroke-linejoin="round"/><g fill-rule="evenodd"><path d="M245.70001,214c2.1,1.9 6.7,5.8 6.7,5.8c0,0 14.3,-2.5 14.3,4.7c0,4.3 -7.2,5.3 -16.9,4.4c-0.6,-0.1 -1.2,-0.3 -1.7,-0.7c-2.2,-1.9 -8.5,-7.5 -12.5,-11.4c-5.9,-5.8 -10.8,-9.6 -10.8,-9.6c-8.5,-8.3 -1.6,-11.8 1.1,-16.6c2.5,-4.1 3.6,-3.3 9.6,-2.1c3.4,0.5 5.4,0.8 7.6,0.7c3.3,-0.1 2.7,4.7 1.8,7.2c0,0 -1.4,3.7 -2.7,5.6c-1.6,2.3 -2.8,3.8 -4,4.7z" fill="#b123ca" stroke="#001026" stroke-width="1.2" stroke-linecap="round" stroke-linejoin="round"/><path d="M237.30001,206.6c0,0 -1.5,-1.2 -3.1,-2.7c-2,-1.8 -4,-3.3 -2,-6.4c1.8,-2.4 3.5,-5.6 8,-2.7c4.3,2.7 2.4,5.2 2.4,5.2c-2.2,4.5 -5.3,6.6 -5.3,6.6z" fill="#ffffff" stroke="none" stroke-width="1" stroke-linecap="butt" stroke-linejoin="miter"/></g><path d="M222.20001,198.4c2.2,2.8 5.6,6.3 1.3,9.2c-5.9,3.3 -10.8,-6.7 -11.8,-10.2c-0.9,-3.1 1.7,-5.1 3.9,-6.8c4.3,-3.1 7.9,-5.9 11.9,-4.4c5,1.8 1.4,5.8 -1.1,7.6c-1.5,1.1 -3,2.3 -4.1,3c-0.3,0.5 -0.4,1.1 -0.1,1.6z" fill="#b123ca" fill-rule="evenodd" stroke="#001026" stroke-width="1.2" stroke-linecap="round" stroke-linejoin="round"/><g fill-rule="evenodd"><path d="M253.70001,131c0.3,-0.2 0.8,-0.1 0.9,0.3l2.6,10.7c0,0 6.4,4.7 8.3,8c3.2,5.5 3.3,10 3.3,10c0,0 7.1,2.1 8.3,7.8c1.2,5.7 -3.2,16.5 -22,20.2c-18.8,3.7 -33.9,-1.4 -41,-12.8c-7.1,-11.4 4.1,-25 3.5,-24.2l-2.1,-17.9c-0.1,-0.4 0.4,-0.7 0.8,-0.5l12.1,7.9c0,0 4.5,-1.7 9.2,-1.9c2.8,-0.2 5.2,0 7.5,0.4z" fill="#b123ca" stroke="#001026" stroke-width="1.2" stroke-linecap="butt" stroke-linejoin="miter"/><path d="M268.50001,160.39999c0,0 6.9,1.8 8.1,7.5c1.2,5.7 -3.6,16 -22.2,19.6c-24.2,5 -35.7,-9.4 -29,-20c6.7,-10.7 18.2,-1.6 26.6,-2.2c7.2,-0.5 8,-6.8 16.5,-4.9z" fill="#ffffff" stroke="none" stroke-width="1" stroke-linecap="butt" stroke-linejoin="miter"/><path d="M237.00001,171.1c0,-0.4 0.4,-0.7 0.8,-0.6c1.9,0.7 7.3,2.3 13.3,2.7c5.4,0.3 8.6,0 10.1,-0.3c0.5,-0.1 0.9,0.4 0.7,0.9c-0.9,2.7 -4.7,10.2 -15.2,9.6c-9.1,-1 -10,-7.4 -9.7,-12.3z" fill="#ffffff" stroke="#001026" stroke-width="1.2" stroke-linecap="round" stroke-linejoin="round"/><path d="M286.90001,161.5c-4.7,3.8 -11.9,3.9 -11.9,3.9" fill="none" stroke="#001026" stroke-width="1.2" stroke-linecap="round" stroke-linejoin="round"/><path d="M285.60001,172.7c-6.3,0.5 -10.2,-1.4 -10.2,-1.4" fill="none" stroke="#001026" stroke-width="1.2" stroke-linecap="round" stroke-linejoin="round"/><path d="M251.60001,162.7c2.1,0 4.3,0.2 4.4,0.9c0.1,1.4 -1.4,4.2 -3,4.3c-1.8,0.2 -6,-2.3 -6,-3.9c-0.1,-1.2 2.6,-1.3 4.6,-1.3z" fill="#001026" stroke="#001026" stroke-width="1.2" stroke-linecap="round" stroke-linejoin="round"/><path d="M206.60001,161.2c0,0 8.6,2.8 12.1,5.9" fill="none" stroke="#001026" stroke-width="1.2" stroke-linecap="round" stroke-linejoin="round"/><path d="M219.00001,170.6c-4.3,1.7 -11.7,0.6 -11.7,0.6" fill="none" stroke="#001026" stroke-width="1.2" stroke-linecap="round" stroke-linejoin="round"/><g><path d="M263.40001,151c2.9,4.5 3,9.6 0.2,11.4c-2.8,1.8 -7.4,-0.3 -10.4,-4.8c-2.9,-4.5 -3,-9.6 -0.2,-11.4c2.8,-1.9 7.5,0.3 10.4,4.8z" fill="#ffffff" stroke="#001026" stroke-width="1.2" stroke-linecap="round" stroke-linejoin="round"/><path d="M263.00001,156.7c0,1.1 -0.8,2 -1.8,2c-1,0 -1.8,-0.9 -1.8,-2c0,-1.1 0.8,-2 1.8,-2c1,0 1.8,0.9 1.8,2" fill="#c92222" stroke="none" stroke-width="1" stroke-linecap="butt" stroke-linejoin="miter"/></g><g><path d="M238.60001,153.8c3,4.4 2.8,9.8 0.1,11.7c-3.3,1.9 -7.7,0.5 -10.7,-3.9c-3.1,-4.4 -3.3,-10.1 -0.2,-12.3c3.1,-2.3 7.8,0.1 10.8,4.5z" fill="#ffffff" stroke="#001026" stroke-width="1.2" stroke-linecap="round" stroke-linejoin="round"/><path d="M238.00001,159.6c0,1.1 -0.8,2 -1.8,2c-1,0 -1.8,-0.9 -1.8,-2c0,-1.1 0.8,-2 1.8,-2c1,0.1 1.8,0.9 1.8,2" fill="#c92222" stroke="none" stroke-width="1" stroke-linecap="butt" stroke-linejoin="miter"/></g></g><path d="M215.61022,131.67822c1.61544,-3.21748 4.01353,-5.40755 6.44865,-7.96774c1.96182,-2.06259 3.19984,-4.76891 7.16221,-3.32813c2.09412,0.76145 2.05569,4.09854 3.77332,5.51802c0.668,0.55205 1.6845,0.48863 2.42325,0.94164c0.44627,0.27366 0.6097,1.48307 1.03646,1.17989c0.87402,-0.62093 0.73341,-2.05217 1.38731,-2.9018c5.0517,-6.56385 11.30246,-9.19494 18.76915,-5.52259c6.00809,5.01855 6.54409,11.64733 10.23711,18.03687l0.58344,0.86448c0,0 0.01467,0.02201 0.03873,0.063c0.54475,-0.19563 1.08331,-0.40769 1.61378,-0.63715l1.38336,-0.85675c0,0 2.14373,-1.28624 3.42997,0.85749c1.28624,2.14373 -0.85749,3.42997 -0.85749,3.42997l-1.98624,1.16501c-1.75686,0.74694 -3.58205,1.34431 -5.43286,1.81229c-7.52222,1.85582 -14.68313,5.05 -22.47773,6.11269c-13.43302,1.83143 -26.36433,-0.88743 -39.32371,-3.73886c0,0 -2.44047,-0.54233 -1.89814,-2.98279c0.54233,-2.44047 2.98279,-1.89814 2.98279,-1.89814c2.32298,0.52077 4.64711,1.03765 6.97507,1.52197c1.01906,-3.90706 1.91281,-8.04692 3.73157,-11.66935z" fill="#bf5800" fill-rule="nonzero" stroke="none" stroke-width="0.5" stroke-linecap="butt" stroke-linejoin="miter"/><path d="M292.85904,197.27593l-1.01185,1.85678c-1.9091,2.20327 -2.43725,3.22087 -5.10314,4.62295c-4.17436,2.19544 -9.61346,1.5228 -14.35878,1.11879c-1.07925,1.08078 -2.17255,2.15334 -3.29745,3.21117c-2.86228,2.6916 -5.21842,5.4747 -9.40166,6.04015c-2.85924,0.38648 -7.17244,0.35991 -8.21546,-3.5394c-0.42881,-1.6031 0.94602,-3.18131 1.40107,-4.77715c1.1911,-4.17711 2.7108,-7.49182 4.94483,-11.27571c1.66451,-2.81926 3.03924,-3.90652 3.36889,-7.1097c0,0 0.27613,-2.20905 2.39184,-2.19739c0.73814,-0.66645 1.77366,-0.66645 1.77366,-0.66645c11.00071,0 21.84248,0.75176 32.81983,1.3005c2.64418,0.13218 11.2015,-1.36123 12.05231,2.91262c0.54088,2.71695 -3.58005,6.28997 -5.74757,7.29576c-3.18223,1.47666 -4.43976,0.72103 -7.89121,0.56512c-1.16258,-0.05252 -2.32839,-0.0788 -3.49592,-0.08872c-0.08043,0.43274 -0.2294,0.73067 -0.2294,0.73067zM282.35433,196.63131c-1.0145,0.12681 -2.03452,0.2168 -3.05637,0.27252l-0.72257,1.69576c-0.52508,0.52424 -1.04558,1.04947 -1.56347,1.57496c3.90186,0.14343 7.30226,-0.3556 10.40466,-3.59069c-1.6904,0.0249 -3.37933,0.05066 -5.06225,0.04745z" fill="#bfb9b4" fill-rule="nonzero" stroke="none" stroke-width="0.5" stroke-linecap="butt" stroke-linejoin="miter"/><path d="M245.03212,152.87033c0,1.25 -1.25,1.25 -1.25,1.25l-1.0075,-0.02427c-5.21635,-1.04424 -9.951,-4.61608 -15.38322,-4.54988c0,0 -1.25,0 -1.25,-1.25c0,-1.25 1.25,-1.25 1.25,-1.25c5.72404,0.05356 10.42992,3.51076 15.87351,4.59843l0.51721,-0.02427c0,0 1.25,0 1.25,1.25z" fill="#c72222" fill-rule="nonzero" stroke="none" stroke-width="0.5" stroke-linecap="butt" stroke-linejoin="miter"/><path d="M246.71003,152.61068c-0.88388,-0.88388 0,-1.76777 0,-1.76777l0.57169,-0.53736c4.44656,-2.9537 8.28161,-6.05035 13.09447,-8.46392c0,0 1.11803,-0.55902 1.67705,0.55902c0.55902,1.11803 -0.55902,1.67705 -0.55902,1.67705c-4.72373,2.35532 -8.46125,5.38656 -12.82575,8.30798l-0.19067,0.225c0,0 -0.88388,0.88388 -1.76777,0z" fill="#c72222" fill-rule="nonzero" stroke="none" stroke-width="0.5" stroke-linecap="butt" stroke-linejoin="miter"/><path d="M309.87323,184.51424c2.35331,-1.81255 5.86237,-2.88447 8.34024,-4.12246c9.40604,-4.69941 20.0051,-6.74502 30.01461,-9.76327c2.43809,-0.7341 4.87806,-1.27665 7.36282,-1.82817l0.01366,0.00123l-0.00077,-0.00387l1.88059,-0.37612c0.08709,-0.01921 0.17759,-0.02934 0.27046,-0.02934c0.69036,0 1.25,0.55964 1.25,1.25c0,0.38261 -0.1719,0.72507 -0.44268,0.95436l-1.89197,1.62169l-0.21516,-0.25103c-3.55868,3.63129 -8.27693,6.4887 -12.54189,9.03869c-1.67353,1.00059 -2.92232,2.12888 -4.61576,3.07333c-0.73339,0.40902 -1.36354,1.04146 -2.07711,1.47821c0.52109,0.18295 1.0588,0.41533 1.50394,0.5024c2.92213,0.57154 5.73678,1.68916 8.47782,2.83021c2.22937,0.92907 4.4208,1.92228 6.61604,2.92881l0.08691,0.10959l0.02572,-0.03429l1.51308,1.13481c0.31022,0.22746 0.51164,0.59457 0.51164,1.00873c0,0.69036 -0.55964,1.25 -1.25,1.25h-1.52472v-0.23866c-2.45715,0.36118 -4.87617,0.23866 -7.5,0.23866c-4.00065,0 -7.99512,-0.16541 -11.98663,-0.27831c2.29123,1.20917 4.37958,2.52494 6.58317,4.18286l0.04583,0.07949l0.01906,-0.01906l1.14354,1.14354l-0.32626,0.32626l0.59723,1.03598c-0.38331,0.08344 -0.76833,0.15148 -1.15485,0.2052v0.56645h-2.28708v-0.4075c-4.75678,0.02125 -9.67077,-1.75988 -14.35042,-3.41294c3.12169,2.7104 6.1112,5.67421 8.7071,8.86284l1.19712,1.21614c0.22242,0.22567 0.35968,0.53551 0.35968,0.8774c0,0.69036 -0.55964,1.25 -1.25,1.25c-0.14845,0 -0.29086,-0.02588 -0.42297,-0.07337l-2.2594,-0.75313l0.13098,-0.39295c-6.55652,-1.90275 -10.63652,-7.44765 -16.5236,-11.34209c-0.99011,-0.65498 -1.87807,-1.45985 -2.88696,-2.08553c-2.10254,-1.30393 -3.52073,1.18225 -5.42721,-1.99659c-1.1813,-1.96969 1.33665,-6.01161 1.85051,-7.9828l0.86544,-1.33122c0,0 0.62062,-0.93093 1.56827,-0.44416z" fill="#fff713" fill-rule="nonzero" stroke="none" stroke-width="0.5" stroke-linecap="butt" stroke-linejoin="miter"/></g></g></svg>