<svg version="1.1" xmlns="http://www.w3.org/2000/svg" xmlns:xlink="http://www.w3.org/1999/xlink" width="162.0521" height="112.41269" viewBox="0,0,162.0521,112.41269"><g transform="translate(-192.32102,-117.92887)"><g data-paper-data="{&quot;isPaintingLayer&quot;:true}" stroke-miterlimit="10" stroke-dasharray="" stroke-dashoffset="0" style="mix-blend-mode: normal"><g fill-rule="evenodd"><path d="M224.70001,201.1c0.8,0.4 2.5,1.3 0.1,4.7c-2.4,3.4 -9.3,4.1 -10.1,4.1c-3.1,0.1 -6.9,0.1 -11.1,-1.3c-12.2,-4 -12.3,-17.1 -8.4,-19.2c3.8,-2.1 5.5,6 11,10.9c2.4,2.2 5.3,3 7.7,3.5c3.4,0.6 9.9,-3.2 10.8,-2.7z" fill="#ffab19" stroke="#001026" stroke-width="1.2" stroke-linecap="round" stroke-linejoin="round"/><path d="M199.90001,193c1.6,2.7 4.7,6.5 4.7,6.5c0,0 -3.7,-0.9 -5.8,0.8c-1.7,1.3 -1.3,3.5 -1.1,4.2c-1.3,-1.3 -2.9,-3.1 -3.9,-6.6c-1,-3.5 0,-7.7 2,-8.3c2,-0.4 2.5,1.1 4.1,3.4z" fill="#ffffff" stroke="none" stroke-width="1" stroke-linecap="butt" stroke-linejoin="miter"/></g><path d="M229.70001,211.5c-1.8,1.2 -8,5.6 -15.9,8.1l-0.4,0.1c-0.4,0.1 -0.6,0.6 -0.4,1c1.7,2.4 4.8,7.2 -0.7,8.9c-5.3,1.7 -15.2,-12.4 -11,-16.1c1.9,-1.4 3.6,-0.7 4.5,-0.3c0.5,0.2 1,0.2 1.5,0.1c1.2,-0.4 3.4,-1.2 5.1,-2.1c4.3,-2.2 5.3,-3.1 7.3,-4.6c2,-1.5 6.6,-5.2 10.3,-2c3.2,2.7 1.4,5.7 -0.3,6.9z" fill="#ffab19" fill-rule="evenodd" stroke="#001026" stroke-width="1.2" stroke-linecap="round" stroke-linejoin="round"/><path d="M245.60001,190.7c0.5,0.4 6.6,7.6 8.6,5.8c2.4,-2.1 5.7,-6.2 9.3,-2.9c3.6,3.3 -3.2,8.9 -6.1,10.4c-6.9,3.1 -12.5,-2.8 -13.7,-4.4c-1.2,-1.6 -3.3,-4.3 -3.3,-6.9c0.1,-2.8 3.5,-3.5 5.2,-2z" fill="#ffab19" fill-rule="evenodd" stroke="#001026" stroke-width="1.2" stroke-linecap="round" stroke-linejoin="round"/><g fill-rule="evenodd"><path d="M245.70001,214c2.1,1.9 6.7,5.8 6.7,5.8c0,0 14.3,-2.5 14.3,4.7c0,4.3 -7.2,5.3 -16.9,4.4c-0.6,-0.1 -1.2,-0.3 -1.7,-0.7c-2.2,-1.9 -8.5,-7.5 -12.5,-11.4c-5.9,-5.8 -10.8,-9.6 -10.8,-9.6c-8.5,-8.3 -1.6,-11.8 1.1,-16.6c2.5,-4.1 3.6,-3.3 9.6,-2.1c3.4,0.5 5.4,0.8 7.6,0.7c3.3,-0.1 2.7,4.7 1.8,7.2c0,0 -1.4,3.7 -2.7,5.6c-1.6,2.3 -2.8,3.8 -4,4.7z" fill="#ffab19" stroke="#001026" stroke-width="1.2" stroke-linecap="round" stroke-linejoin="round"/><path d="M237.30001,206.6c0,0 -1.5,-1.2 -3.1,-2.7c-2,-1.8 -4,-3.3 -2,-6.4c1.8,-2.4 3.5,-5.6 8,-2.7c4.3,2.7 2.4,5.2 2.4,5.2c-2.2,4.5 -5.3,6.6 -5.3,6.6z" fill="#ffffff" stroke="none" stroke-width="1" stroke-linecap="butt" stroke-linejoin="miter"/></g><path d="M222.20001,198.4c2.2,2.8 5.6,6.3 1.3,9.2c-5.9,3.3 -10.8,-6.7 -11.8,-10.2c-0.9,-3.1 1.7,-5.1 3.9,-6.8c4.3,-3.1 7.9,-5.9 11.9,-4.4c5,1.8 1.4,5.8 -1.1,7.6c-1.5,1.1 -3,2.3 -4.1,3c-0.3,0.5 -0.4,1.1 -0.1,1.6z" fill="#ffab19" fill-rule="evenodd" stroke="#001026" stroke-width="1.2" stroke-linecap="round" stroke-linejoin="round"/><g fill-rule="evenodd"><path d="M253.70001,131c0.3,-0.2 0.8,-0.1 0.9,0.3l2.6,10.7c0,0 6.4,4.7 8.3,8c3.2,5.5 3.3,10 3.3,10c0,0 7.1,2.1 8.3,7.8c1.2,5.7 -3.2,16.5 -22,20.2c-18.8,3.7 -33.9,-1.4 -41,-12.8c-7.1,-11.4 4.1,-25 3.5,-24.2l-2.1,-17.9c-0.1,-0.4 0.4,-0.7 0.8,-0.5l12.1,7.9c0,0 4.5,-1.7 9.2,-1.9c2.8,-0.2 5.2,0 7.5,0.4z" fill="#ffab19" stroke="#001026" stroke-width="1.2" stroke-linecap="butt" stroke-linejoin="miter"/><path d="M268.50001,160.39999c0,0 6.9,1.8 8.1,7.5c1.2,5.7 -3.6,16 -22.2,19.6c-24.2,5 -35.7,-9.4 -29,-20c6.7,-10.7 18.2,-1.6 26.6,-2.2c7.2,-0.5 8,-6.8 16.5,-4.9z" fill="#ffffff" stroke="none" stroke-width="1" stroke-linecap="butt" stroke-linejoin="miter"/><path d="M237.00001,171.1c0,-0.4 0.4,-0.7 0.8,-0.6c1.9,0.7 7.3,2.3 13.3,2.7c5.4,0.3 8.6,0 10.1,-0.3c0.5,-0.1 0.9,0.4 0.7,0.9c-0.9,2.7 -4.7,10.2 -15.2,9.6c-9.1,-1 -10,-7.4 -9.7,-12.3z" fill="#ffffff" stroke="#001026" stroke-width="1.2" stroke-linecap="round" stroke-linejoin="round"/><path d="M286.90001,161.5c-4.7,3.8 -11.9,3.9 -11.9,3.9" fill="none" stroke="#001026" stroke-width="1.2" stroke-linecap="round" stroke-linejoin="round"/><path d="M285.60001,172.7c-6.3,0.5 -10.2,-1.4 -10.2,-1.4" fill="none" stroke="#001026" stroke-width="1.2" stroke-linecap="round" stroke-linejoin="round"/><path d="M251.60001,162.7c2.1,0 4.3,0.2 4.4,0.9c0.1,1.4 -1.4,4.2 -3,4.3c-1.8,0.2 -6,-2.3 -6,-3.9c-0.1,-1.2 2.6,-1.3 4.6,-1.3z" fill="#001026" stroke="#001026" stroke-width="1.2" stroke-linecap="round" stroke-linejoin="round"/><path d="M206.60001,161.2c0,0 8.6,2.8 12.1,5.9" fill="none" stroke="#001026" stroke-width="1.2" stroke-linecap="round" stroke-linejoin="round"/><path d="M219.00001,170.6c-4.3,1.7 -11.7,0.6 -11.7,0.6" fill="none" stroke="#001026" stroke-width="1.2" stroke-linecap="round" stroke-linejoin="round"/><g><path d="M263.40001,151c2.9,4.5 3,9.6 0.2,11.4c-2.8,1.8 -7.4,-0.3 -10.4,-4.8c-2.9,-4.5 -3,-9.6 -0.2,-11.4c2.8,-1.9 7.5,0.3 10.4,4.8z" fill="#ffffff" stroke="#001026" stroke-width="1.2" stroke-linecap="round" stroke-linejoin="round"/><path d="M263.00001,156.7c0,1.1 -0.8,2 -1.8,2c-1,0 -1.8,-0.9 -1.8,-2c0,-1.1 0.8,-2 1.8,-2c1,0 1.8,0.9 1.8,2" fill="#001026" stroke="none" stroke-width="1" stroke-linecap="butt" stroke-linejoin="miter"/></g><g><path d="M238.60001,153.8c3,4.4 2.8,9.8 0.1,11.7c-3.3,1.9 -7.7,0.5 -10.7,-3.9c-3.1,-4.4 -3.3,-10.1 -0.2,-12.3c3.1,-2.3 7.8,0.1 10.8,4.5z" fill="#ffffff" stroke="#001026" stroke-width="1.2" stroke-linecap="round" stroke-linejoin="round"/><path d="M238.00001,159.6c0,1.1 -0.8,2 -1.8,2c-1,0 -1.8,-0.9 -1.8,-2c0,-1.1 0.8,-2 1.8,-2c1,0.1 1.8,0.9 1.8,2" fill="#001026" stroke="none" stroke-width="1" stroke-linecap="butt" stroke-linejoin="miter"/></g></g><path d="M215.61022,131.67822c1.61544,-3.21748 4.01353,-5.40755 6.44865,-7.96774c1.96182,-2.06259 3.19984,-4.76891 7.16221,-3.32813c2.09412,0.76145 2.05569,4.09854 3.77332,5.51802c0.668,0.55205 1.6845,0.48863 2.42325,0.94164c0.44627,0.27366 0.6097,1.48307 1.03646,1.17989c0.87402,-0.62093 0.73341,-2.05217 1.38731,-2.9018c5.0517,-6.56385 11.30246,-9.19494 18.76915,-5.52259c6.00809,5.01855 6.54409,11.64733 10.23711,18.03687l0.58344,0.86448c0,0 0.01467,0.02201 0.03873,0.063c0.54475,-0.19563 1.08331,-0.40769 1.61378,-0.63715l1.38336,-0.85675c0,0 2.14373,-1.28624 3.42997,0.85749c1.28624,2.14373 -0.85749,3.42997 -0.85749,3.42997l-1.98624,1.16501c-1.75686,0.74694 -3.58205,1.34431 -5.43286,1.81229c-7.52222,1.85582 -14.68313,5.05 -22.47773,6.11269c-13.43302,1.83143 -26.36433,-0.88743 -39.32371,-3.73886c0,0 -2.44047,-0.54233 -1.89814,-2.98279c0.54233,-2.44047 2.98279,-1.89814 2.98279,-1.89814c2.32298,0.52077 4.64711,1.03765 6.97507,1.52197c1.01906,-3.90706 1.91281,-8.04692 3.73157,-11.66935z" fill="#bf5800" fill-rule="nonzero" stroke="none" stroke-width="0.5" stroke-linecap="butt" stroke-linejoin="miter"/><path d="M292.85904,197.27593l-1.01185,1.85678c-1.9091,2.20327 -2.43725,3.22087 -5.10314,4.62295c-4.17436,2.19544 -9.61346,1.5228 -14.35878,1.11879c-1.07925,1.08078 -2.17255,2.15334 -3.29745,3.21117c-2.86228,2.6916 -5.21842,5.4747 -9.40166,6.04015c-2.85924,0.38648 -7.17244,0.35991 -8.21546,-3.5394c-0.42881,-1.6031 0.94602,-3.18131 1.40107,-4.77715c1.1911,-4.17711 2.7108,-7.49182 4.94483,-11.27571c1.66451,-2.81926 3.03924,-3.90652 3.36889,-7.1097c0,0 0.27613,-2.20905 2.39184,-2.19739c0.73814,-0.66645 1.77366,-0.66645 1.77366,-0.66645c11.00071,0 21.84248,0.75176 32.81983,1.3005c2.64418,0.13218 11.2015,-1.36123 12.05231,2.91262c0.54088,2.71695 -3.58005,6.28997 -5.74757,7.29576c-3.18223,1.47666 -4.43976,0.72103 -7.89121,0.56512c-1.16258,-0.05252 -2.32839,-0.0788 -3.49592,-0.08872c-0.08043,0.43274 -0.2294,0.73067 -0.2294,0.73067zM282.35433,196.63131c-1.0145,0.12681 -2.03452,0.2168 -3.05637,0.27252l-0.72257,1.69576c-0.52508,0.52424 -1.04558,1.04947 -1.56347,1.57496c3.90186,0.14343 7.30226,-0.3556 10.40466,-3.59069c-1.6904,0.0249 -3.37933,0.05066 -5.06225,0.04745z" fill="#bfb9b4" fill-rule="nonzero" stroke="none" stroke-width="0.5" stroke-linecap="butt" stroke-linejoin="miter"/><path d="M308.82345,185.79365c0.04914,-0.0461 0.08185,-0.07063 0.08185,-0.07063c6.54477,-4.90807 13.84112,-8.37334 21.71447,-10.5631c2.39832,-0.66703 5.99896,-2.01152 8.48777,-2.13828c2.43387,-0.12396 3.71598,0.43064 2.26983,3.24623c-0.42463,0.82673 -1.40305,1.21927 -2.10458,1.8289c-1.67367,1.9317 -3.40238,3.63771 -5.28074,5.36577c-1.12771,1.03748 -1.98537,2.41543 -3.30353,3.19682c-0.0456,0.02703 -0.112,0.04245 -0.18909,0.0496c1.77906,0.3214 3.16797,1.17439 4.9086,1.89284c5.27696,2.17806 10.67294,4.20847 16.01678,6.21892l1.95454,0.45042c0.56745,0.11821 0.99377,0.62118 0.99377,1.22371c0,0.41416 -0.20142,0.78127 -0.51164,1.00873l-1.3362,1.00215l-0.00985,-0.01313c-0.05191,0.04168 -0.1052,0.08185 -0.16002,0.12035c-1.30138,0.91409 -3.79498,1.03998 -5.28744,1.21875c-4.3562,0.52178 -8.70753,1.04968 -13.05927,1.60617c0.27226,0.32093 0.53095,0.66177 0.82431,0.95004c1.97221,1.93799 8.39216,7.03403 2.25243,8.4909c-0.67265,0.15961 -4.34651,-1.47372 -4.94662,-1.72415c-3.63864,-1.51844 -7.51795,-3.67133 -10.80852,-5.8692c-2.88245,-1.92528 -3.91929,-4.40563 -7.26074,-5.24099c-2.95713,-0.73928 -7.46548,-1.15717 -8.01362,-4.76651c-0.34685,-2.28386 1.06714,-3.79932 1.00151,-5.88105l0.70308,-1.22084c0,0 0.46772,-0.46772 1.06292,-0.38245z" fill="#fff713" fill-rule="nonzero" stroke="none" stroke-width="0.5" stroke-linecap="butt" stroke-linejoin="miter"/></g></g></svg>