<svg version="1.1" xmlns="http://www.w3.org/2000/svg" xmlns:xlink="http://www.w3.org/1999/xlink" width="161.97102" height="114.05403" viewBox="0,0,161.97102,114.05403"><g transform="translate(-148.51482,-118.6978)"><g data-paper-data="{&quot;isPaintingLayer&quot;:true}" stroke-miterlimit="10" stroke-dasharray="" stroke-dashoffset="0" style="mix-blend-mode: normal"><g data-paper-data="{&quot;index&quot;:null}" fill-rule="evenodd"><path d="M288.51876,206.11883c2.42005,-0.3916 5.35309,-1.06041 7.84957,-3.15029c5.71473,-4.64778 7.77717,-12.66316 11.47892,-10.39445c3.80165,2.27321 3.1128,15.35547 -9.25469,18.80294c-4.25869,1.20976 -8.05485,1.03892 -11.14722,0.79966c-0.79919,-0.03597 -7.66074,-1.04547 -9.90546,-4.54993c-2.24472,-3.50446 -0.50597,-4.32712 0.3112,-4.69075c0.92157,-0.45903 7.24416,3.62935 10.66769,3.18281z" fill="#ffab19" stroke="#001026" stroke-width="1.2" stroke-linecap="round" stroke-linejoin="round"/><path d="M307.23886,192.74692c1.971,0.68931 2.78117,4.93002 1.62483,8.38152c-1.15634,3.4515 -2.83565,5.17775 -4.19278,6.41799c0.23127,-0.6903 0.72977,-2.87009 -0.91007,-4.24521c-2.02145,-1.79269 -5.75817,-1.05995 -5.75817,-1.05995c0,0 3.2677,-3.65679 4.98747,-6.28213c1.70178,-2.22574 2.26872,-3.70175 4.24871,-3.21224z" fill="#ffffff" stroke="none" stroke-width="1" stroke-linecap="butt" stroke-linejoin="miter"/></g><path d="M272.39907,206.1942c3.84012,-3.03042 8.26913,0.87264 10.19967,2.46104c1.93054,1.5884 2.88907,2.53245 7.08581,4.92354c1.65782,0.97552 3.81963,1.87362 5.00043,2.32716c0.495,0.12238 0.99449,0.14486 1.50298,-0.03246c0.91707,-0.35913 2.64682,-0.982 4.48196,0.50201c4.02941,3.88508 -6.49448,17.52574 -11.71269,15.58919c-5.41801,-1.94555 -2.10535,-6.60133 -0.29917,-8.92247c0.21778,-0.3906 0.04046,-0.89909 -0.35464,-1.01697l-0.3951,-0.11788c-7.77962,-2.85264 -13.77554,-7.52693 -15.51977,-8.80664c-1.64433,-1.27521 -3.30764,-4.3531 0.01051,-6.90651z" data-paper-data="{&quot;index&quot;:null}" fill="#ffab19" fill-rule="evenodd" stroke="#001026" stroke-width="1.2" stroke-linecap="round" stroke-linejoin="round"/><path d="M262.54459,193.83868c-0.11689,2.59737 -2.33615,5.20023 -3.60687,6.74466c-1.27072,1.54443 -7.13031,7.18671 -13.88396,3.77963c-2.82963,-1.62886 -9.37099,-7.52891 -5.62627,-10.66373c3.74472,-3.13482 6.85706,1.1094 9.16022,3.31517c1.91705,1.8881 8.33458,-5.03038 8.85206,-5.4075c1.76572,-1.42206 5.13081,-0.56991 5.10483,2.23176z" data-paper-data="{&quot;index&quot;:null}" fill="#ffab19" fill-rule="evenodd" stroke="#001026" stroke-width="1.2" stroke-linecap="round" stroke-linejoin="round"/><g data-paper-data="{&quot;index&quot;:null}" fill-rule="evenodd"><path d="M264.11295,207.92343c-1.15832,-0.95304 -2.28968,-2.50547 -3.78465,-4.87508c-1.21327,-1.95652 -2.44551,-5.71572 -2.44551,-5.71572c-0.7867,-2.53793 -1.17029,-7.36006 2.12187,-7.1118c2.19328,0.19881 4.20474,-0.01098 7.62379,-0.35761c6.04788,-0.92904 7.18274,-1.67878 9.49588,2.52947c2.48147,4.91653 9.21715,8.7232 0.35259,16.63267c0,0 -5.06588,3.57587 -11.22067,9.10475c-4.17129,3.71623 -10.71668,9.02733 -12.99988,10.8265c-0.51748,0.37712 -1.12586,0.54994 -1.72975,0.62286c-9.73065,0.463 -16.87842,-0.85968 -16.6851,-5.15533c0.32369,-7.19272 14.49684,-4.05235 14.49684,-4.05235c0,0 4.77068,-3.68925 6.95398,-5.49292z" fill="#ffab19" stroke="#001026" stroke-width="1.2" stroke-linecap="round" stroke-linejoin="round"/><path d="M260.01862,201.03239c0,0 -1.78568,-2.58289 2.63135,-5.08684c4.62583,-2.69476 6.18024,0.57843 7.87053,3.05693c1.85861,3.18678 -0.2068,4.59535 -2.28571,6.30361c-1.66582,1.42655 -3.21825,2.5579 -3.21825,2.5579c0,0 -3.00245,-2.23725 -4.99792,-6.8316z" fill="#ffffff" stroke="none" stroke-width="1" stroke-linecap="butt" stroke-linejoin="miter"/></g><path d="M280.44196,198.74826c-1.06742,-0.74875 -2.51195,-2.01497 -3.96098,-3.18129c-2.41655,-1.91057 -5.83308,-6.06838 -0.75721,-7.64177c4.06339,-1.31865 7.53387,1.64036 11.69015,4.93055c2.12135,1.79719 4.6288,3.91206 3.59035,6.96846c-1.15634,3.4515 -6.50096,13.2211 -12.24664,9.65919c-4.16528,-3.09039 -0.61136,-6.43399 1.7123,-9.13225c0.32218,-0.48601 0.24925,-1.0899 -0.02797,-1.60288z" data-paper-data="{&quot;index&quot;:null}" fill="#ffab19" fill-rule="evenodd" stroke="#001026" stroke-width="1.2" stroke-linecap="round" stroke-linejoin="round"/><g data-paper-data="{&quot;index&quot;:null}" fill-rule="evenodd"><path d="M260.26356,139.98167c2.31566,-0.29619 4.72222,-0.38809 7.5104,-0.06241c4.68626,0.4111 9.10528,2.31169 9.10528,2.31169l12.44293,-7.34803c0.40859,-0.18181 0.89459,0.14036 0.77671,0.53546l-2.90262,17.78749c-0.56343,-0.82617 10.01383,13.26361 2.40849,24.33288c-7.60534,11.06927 -22.91935,15.48526 -41.534,10.9438c-18.61465,-4.54146 -22.52466,-15.52835 -21.06961,-21.16864c1.45504,-5.64029 8.64228,-7.41897 8.64228,-7.41897c0,0 0.30221,-4.49095 3.74624,-9.84153c2.04644,-3.21124 8.65127,-7.61876 8.65127,-7.61876l3.07842,-10.57229c0.11788,-0.3951 0.62187,-0.47252 0.91258,-0.25923z" fill="#ffab19" stroke="#001026" stroke-width="1.2" stroke-linecap="butt" stroke-linejoin="miter"/><path d="M252.18815,165.94486c8.36453,0.97704 20.26202,-7.59675 26.4742,3.39365c6.21668,10.8905 -5.91909,24.75893 -29.86983,18.67601c-18.41935,-4.43257 -22.75143,-14.93795 -21.29638,-20.57824c1.45504,-5.64029 8.42899,-7.12826 8.42899,-7.12826c8.57683,-1.51594 9.09278,4.81366 16.26302,5.63685z" fill="#ffffff" stroke="none" stroke-width="1" stroke-linecap="butt" stroke-linejoin="miter"/><path d="M256.66906,184.26485c-10.51636,0.12734 -13.97533,-7.53592 -14.75304,-10.27365c-0.17732,-0.50849 0.24476,-0.99 0.73975,-0.86762c1.485,0.36713 4.66827,0.81069 10.0763,0.75377c6.01192,-0.12985 11.47839,-1.48546 13.40794,-2.09933c0.40409,-0.08192 0.7902,0.23576 0.77222,0.63536c0.0794,4.90853 -1.10741,11.2616 -10.24317,11.85147z" fill="#ffffff" stroke="#001026" stroke-width="1.2" stroke-linecap="round" stroke-linejoin="round"/><path d="M229.20691,165.01075c0,0 -7.18822,-0.42359 -11.71263,-4.43105" fill="none" stroke="#001026" stroke-width="1.2" stroke-linecap="round" stroke-linejoin="round"/><path d="M228.54207,170.8868c0,0 -3.98148,1.72274 -10.25263,0.94002" fill="none" stroke="#001026" stroke-width="1.2" stroke-linecap="round" stroke-linejoin="round"/><path d="M257.24154,164.87098c-0.07193,1.59838 -4.38008,3.90703 -6.16927,3.62631c-1.59389,-0.17183 -2.96649,-3.03644 -2.80365,-4.43052c0.13137,-0.6948 2.33814,-0.79569 4.43601,-0.70128c1.99798,0.08992 4.69075,0.3112 4.5369,1.50549z" fill="#001026" stroke="#001026" stroke-width="1.2" stroke-linecap="round" stroke-linejoin="round"/><path d="M285.37356,169.24014c3.63583,-2.93951 12.35302,-5.35005 12.35302,-5.35005" fill="none" stroke="#001026" stroke-width="1.2" stroke-linecap="round" stroke-linejoin="round"/><path d="M296.57771,173.84851c0,0 -7.44197,0.7662 -11.6612,-1.1254" fill="none" stroke="#001026" stroke-width="1.2" stroke-linecap="round" stroke-linejoin="round"/><g><path d="M252.04785,146.81923c2.71625,1.92406 2.38706,7.01441 -0.71231,11.37948c-3.19928,4.36058 -7.88904,6.25165 -10.60528,4.32759c-2.71625,-1.92406 -2.38706,-7.01441 0.71231,-11.37948c3.09938,-4.36507 7.89353,-6.35155 10.60528,-4.32759z" fill="#ffffff" stroke="#001026" stroke-width="1.2" stroke-linecap="round" stroke-linejoin="round"/><path d="M241.58591,156.85904c0.04945,-1.09889 0.88911,-1.96201 1.8881,-1.91705c0.99899,0.04496 1.75772,0.98001 1.70826,2.0789c-0.04945,1.09889 -0.88911,1.96201 -1.8881,1.91705c-0.99899,-0.04496 -1.75772,-0.98001 -1.70826,-2.0789" fill="#001026" stroke="none" stroke-width="1" stroke-linecap="butt" stroke-linejoin="miter"/></g><g><path d="M277.083,151.04902c2.99796,2.33714 2.5419,8.02239 -0.75278,12.27857c-3.19478,4.26068 -7.65327,5.46145 -10.86452,3.41501c-2.61185,-2.01946 -2.56888,-7.423 0.6259,-11.68367c3.19478,-4.26068 7.99793,-6.44695 10.99139,-4.00991z" fill="#ffffff" stroke="#001026" stroke-width="1.2" stroke-linecap="round" stroke-linejoin="round"/><path d="M266.43025,160.88004c0.04945,-1.09889 0.88461,-1.86211 1.8881,-1.91705c0.99899,0.04496 1.75772,0.98001 1.70826,2.0789c-0.04945,1.09889 -0.88911,1.96201 -1.8881,1.91705c-0.99899,-0.04496 -1.75772,-0.98001 -1.70826,-2.0789" fill="#001026" stroke="none" stroke-width="1" stroke-linecap="butt" stroke-linejoin="miter"/></g></g><path d="M290.0527,133.9931c1.65407,3.70053 2.36079,7.87639 3.20317,11.82531c2.34738,-0.37917 4.6924,-0.79104 7.03644,-1.20685c0,0 2.46237,-0.43206 2.89444,2.03032c0.43206,2.46237 -2.03032,2.89444 -2.03032,2.89444c-13.07447,2.26592 -26.11494,4.40068 -39.45204,1.96718c-7.73894,-1.41204 -14.74901,-4.92493 -22.18019,-7.11705c-1.8279,-0.55071 -3.62439,-1.22954 -5.34589,-2.05471l-1.93186,-1.25313c0,0 -2.08374,-1.38132 -0.70242,-3.46505c1.38132,-2.08374 3.46505,-0.70242 3.46505,-0.70242l1.34344,0.91808c0.51962,0.25308 1.0481,0.48913 1.5835,0.70906c0.02588,-0.03987 0.04152,-0.0612 0.04152,-0.0612l0.62172,-0.83738c3.97654,-6.21705 4.81002,-12.81503 11.03765,-17.5584c7.62424,-3.33295 13.75039,-0.4235 18.50189,6.36082c0.61504,0.87817 0.41023,2.30164 1.25545,2.96124c0.4127,0.32206 0.63034,-0.87878 1.08846,-1.1321c0.75837,-0.41934 1.77099,-0.31028 2.46313,-0.83174c1.77971,-1.34082 1.89135,-4.67627 4.01758,-5.3428c4.02314,-1.26118 5.13824,1.49806 7.00534,3.64676c2.31756,2.66708 4.61476,4.96275 6.08392,8.2496z" data-paper-data="{&quot;index&quot;:null}" fill="#bf5800" fill-rule="nonzero" stroke="none" stroke-width="0.5" stroke-linecap="butt" stroke-linejoin="miter"/><path d="M209.93288,196.05154c0,0 -0.13543,-0.30433 -0.19632,-0.74024c-1.1668,-0.04258 -2.33261,-0.06874 -3.49637,-0.06854c-3.45497,0.00058 -4.7452,0.69891 -7.85782,-0.91932c-2.12011,-1.10222 -6.07624,-4.85689 -5.41376,-7.54678c1.04209,-4.23128 9.52362,-2.35466 12.17107,-2.36783c10.99092,-0.05467 21.85553,-0.31825 32.84511,0.17632c0,0 1.03447,0.04655 1.7419,0.74552c2.1141,0.08347 2.29063,2.3027 2.29063,2.3027c0.18531,3.21476 1.50977,4.36273 3.04585,7.25397c2.06166,3.8805 3.4308,7.26018 4.4329,11.48662c0.38284,1.61468 1.68533,3.25311 1.18488,4.83531c-1.21727,3.84848 -5.5273,3.68111 -8.36628,3.16647c-4.15359,-0.75295 -6.38223,-3.63916 -9.1206,-6.45672c-1.07621,-1.10733 -2.12018,-2.22796 -3.14975,-3.35617c-4.75869,0.19026 -10.22253,0.61769 -14.29396,-1.76319c-2.60016,-1.52051 -3.08203,-2.56083 -4.89014,-4.8477l-0.92735,-1.90039zM215.40094,195.60486c2.95382,3.3713 6.32835,4.02269 10.23271,4.05483c-0.49374,-0.54824 -0.9901,-1.09634 -1.49108,-1.64366l-0.6456,-1.72653c-1.01831,-0.1016 -2.03325,-0.23736 -3.04103,-0.40965c-1.68136,-0.07245 -3.36743,-0.17412 -5.055,-0.27499z" data-paper-data="{&quot;index&quot;:null}" fill="#bfb9b4" fill-rule="nonzero" stroke="none" stroke-width="0.5" stroke-linecap="butt" stroke-linejoin="miter"/><path d="M194.50082,183.86313c0.59843,-0.05843 1.04465,0.42985 1.04465,0.42985l0.64748,1.25121c-0.15915,2.07667 1.18528,3.65417 0.7361,5.92013c-0.70985,3.58105 -5.23243,3.79583 -8.21981,4.40142c-3.37563,0.68429 -4.52293,3.11552 -7.48902,4.90927c-3.38605,2.04771 -7.35823,4.02402 -11.06146,5.37734c-0.61076,0.2232 -4.35434,1.68971 -5.01913,1.50002c-6.06802,-1.73142 0.57454,-6.53369 2.63188,-8.38105c0.30602,-0.27479 0.57978,-0.60366 0.86619,-0.91202c-4.32232,-0.75157 -8.64552,-1.47456 -12.97386,-2.19166c-1.48291,-0.24569 -3.96833,-0.48356 -5.2273,-1.45523c-0.05303,-0.04093 -0.10446,-0.08345 -0.15445,-0.12742l-0.01043,0.01267l-1.28979,-1.06121c-0.29968,-0.24118 -0.48439,-0.61697 -0.46577,-1.03071c0.02709,-0.60192 0.47559,-1.08522 1.04778,-1.1778l1.97281,-0.36209c5.42882,-1.76817 10.91063,-3.55394 16.28017,-5.49256c1.77117,-0.63947 3.19702,-1.42915 4.98873,-1.67025c-0.07669,-0.01061 -0.14233,-0.029 -0.18667,-0.05805c-1.2817,-0.83986 -2.07654,-2.25498 -3.15647,-3.34211c-1.79877,-1.81076 -3.44904,-3.59276 -5.03417,-5.59775c-0.67341,-0.64055 -1.6332,-1.07668 -2.02023,-1.92167c-1.31811,-2.87776 -0.01236,-3.37416 2.41348,-3.1409c2.48059,0.23852 6.01715,1.74353 8.38306,2.51771c7.76694,2.54151 14.90013,6.33131 21.21762,11.52865c0,0 0.03157,0.02598 0.07859,0.07424z" data-paper-data="{&quot;index&quot;:null}" fill="#fff713" fill-rule="nonzero" stroke="none" stroke-width="0.5" stroke-linecap="butt" stroke-linejoin="miter"/></g></g></svg>