<svg version="1.1" xmlns="http://www.w3.org/2000/svg" xmlns:xlink="http://www.w3.org/1999/xlink" width="117.95055" height="112.41269" viewBox="0,0,117.95055,112.41269"><g transform="translate(-192.32102,-117.92888)"><g data-paper-data="{&quot;isPaintingLayer&quot;:true}" stroke-miterlimit="10" stroke-dasharray="" stroke-dashoffset="0" style="mix-blend-mode: normal"><g fill-rule="evenodd"><path d="M224.70001,201.10001c0.8,0.4 2.5,1.3 0.1,4.7c-2.4,3.4 -9.3,4.1 -10.1,4.1c-3.1,0.1 -6.9,0.1 -11.1,-1.3c-12.2,-4 -12.3,-17.1 -8.4,-19.2c3.8,-2.1 5.5,6 11,10.9c2.4,2.2 5.3,3 7.7,3.5c3.4,0.6 9.9,-3.2 10.8,-2.7z" fill="#b123ca" stroke="#001026" stroke-width="1.2" stroke-linecap="round" stroke-linejoin="round"/><path d="M199.90001,193.00001c1.6,2.7 4.7,6.5 4.7,6.5c0,0 -3.7,-0.9 -5.8,0.8c-1.7,1.3 -1.3,3.5 -1.1,4.2c-1.3,-1.3 -2.9,-3.1 -3.9,-6.6c-1,-3.5 0,-7.7 2,-8.3c2,-0.4 2.5,1.1 4.1,3.4z" fill="#ffffff" stroke="none" stroke-width="1" stroke-linecap="butt" stroke-linejoin="miter"/></g><path d="M229.70001,211.50001c-1.8,1.2 -8,5.6 -15.9,8.1l-0.4,0.1c-0.4,0.1 -0.6,0.6 -0.4,1c1.7,2.4 4.8,7.2 -0.7,8.9c-5.3,1.7 -15.2,-12.4 -11,-16.1c1.9,-1.4 3.6,-0.7 4.5,-0.3c0.5,0.2 1,0.2 1.5,0.1c1.2,-0.4 3.4,-1.2 5.1,-2.1c4.3,-2.2 5.3,-3.1 7.3,-4.6c2,-1.5 6.6,-5.2 10.3,-2c3.2,2.7 1.4,5.7 -0.3,6.9z" fill="#b123ca" fill-rule="evenodd" stroke="#001026" stroke-width="1.2" stroke-linecap="round" stroke-linejoin="round"/><path d="M245.60001,190.70001c0.5,0.4 6.6,7.6 8.6,5.8c2.4,-2.1 5.7,-6.2 9.3,-2.9c3.6,3.3 -3.2,8.9 -6.1,10.4c-6.9,3.1 -12.5,-2.8 -13.7,-4.4c-1.2,-1.6 -3.3,-4.3 -3.3,-6.9c0.1,-2.8 3.5,-3.5 5.2,-2z" fill="#b123ca" fill-rule="evenodd" stroke="#001026" stroke-width="1.2" stroke-linecap="round" stroke-linejoin="round"/><g fill-rule="evenodd"><path d="M245.70001,214.00001c2.1,1.9 6.7,5.8 6.7,5.8c0,0 14.3,-2.5 14.3,4.7c0,4.3 -7.2,5.3 -16.9,4.4c-0.6,-0.1 -1.2,-0.3 -1.7,-0.7c-2.2,-1.9 -8.5,-7.5 -12.5,-11.4c-5.9,-5.8 -10.8,-9.6 -10.8,-9.6c-8.5,-8.3 -1.6,-11.8 1.1,-16.6c2.5,-4.1 3.6,-3.3 9.6,-2.1c3.4,0.5 5.4,0.8 7.6,0.7c3.3,-0.1 2.7,4.7 1.8,7.2c0,0 -1.4,3.7 -2.7,5.6c-1.6,2.3 -2.8,3.8 -4,4.7z" fill="#b123ca" stroke="#001026" stroke-width="1.2" stroke-linecap="round" stroke-linejoin="round"/><path d="M237.30001,206.60001c0,0 -1.5,-1.2 -3.1,-2.7c-2,-1.8 -4,-3.3 -2,-6.4c1.8,-2.4 3.5,-5.6 8,-2.7c4.3,2.7 2.4,5.2 2.4,5.2c-2.2,4.5 -5.3,6.6 -5.3,6.6z" fill="#ffffff" stroke="none" stroke-width="1" stroke-linecap="butt" stroke-linejoin="miter"/></g><path d="M222.20001,198.40001c2.2,2.8 5.6,6.3 1.3,9.2c-5.9,3.3 -10.8,-6.7 -11.8,-10.2c-0.9,-3.1 1.7,-5.1 3.9,-6.8c4.3,-3.1 7.9,-5.9 11.9,-4.4c5,1.8 1.4,5.8 -1.1,7.6c-1.5,1.1 -3,2.3 -4.1,3c-0.3,0.5 -0.4,1.1 -0.1,1.6z" fill="#b123ca" fill-rule="evenodd" stroke="#001026" stroke-width="1.2" stroke-linecap="round" stroke-linejoin="round"/><g fill-rule="evenodd"><path d="M253.70001,131c0.3,-0.2 0.8,-0.1 0.9,0.3l2.6,10.7c0,0 6.4,4.7 8.3,8c3.2,5.5 3.3,10 3.3,10c0,0 7.1,2.1 8.3,7.8c1.2,5.7 -3.2,16.5 -22,20.2c-18.8,3.7 -33.9,-1.4 -41,-12.8c-7.1,-11.4 4.1,-25 3.5,-24.2l-2.1,-17.9c-0.1,-0.4 0.4,-0.7 0.8,-0.5l12.1,7.9c0,0 4.5,-1.7 9.2,-1.9c2.8,-0.2 5.2,0 7.5,0.4z" fill="#b123ca" stroke="#001026" stroke-width="1.2" stroke-linecap="butt" stroke-linejoin="miter"/><path d="M268.50001,160.39999c0,0 6.9,1.8 8.1,7.5c1.2,5.7 -3.6,16 -22.2,19.6c-24.2,5 -35.7,-9.4 -29,-20c6.7,-10.7 18.2,-1.6 26.6,-2.2c7.2,-0.5 8,-6.8 16.5,-4.9z" fill="#ffffff" stroke="none" stroke-width="1" stroke-linecap="butt" stroke-linejoin="miter"/><path d="M237.00001,171.10001c0,-0.4 0.4,-0.7 0.8,-0.6c1.9,0.7 7.3,2.3 13.3,2.7c5.4,0.3 8.6,0 10.1,-0.3c0.5,-0.1 0.9,0.4 0.7,0.9c-0.9,2.7 -4.7,10.2 -15.2,9.6c-9.1,-1 -10,-7.4 -9.7,-12.3z" fill="#ffffff" stroke="#ffffff" stroke-width="1.2" stroke-linecap="round" stroke-linejoin="round"/><path d="M286.90001,161.5c-4.7,3.8 -11.9,3.9 -11.9,3.9" fill="none" stroke="#001026" stroke-width="1.2" stroke-linecap="round" stroke-linejoin="round"/><path d="M285.60001,172.70001c-6.3,0.5 -10.2,-1.4 -10.2,-1.4" fill="none" stroke="#001026" stroke-width="1.2" stroke-linecap="round" stroke-linejoin="round"/><path d="M251.60001,162.70001c2.1,0 4.3,0.2 4.4,0.9c0.1,1.4 -1.4,4.2 -3,4.3c-1.8,0.2 -6,-2.3 -6,-3.9c-0.1,-1.2 2.6,-1.3 4.6,-1.3z" fill="#001026" stroke="#001026" stroke-width="1.2" stroke-linecap="round" stroke-linejoin="round"/><path d="M206.60001,161.20001c0,0 8.6,2.8 12.1,5.9" fill="none" stroke="#001026" stroke-width="1.2" stroke-linecap="round" stroke-linejoin="round"/><path d="M219.00001,170.60001c-4.3,1.7 -11.7,0.6 -11.7,0.6" fill="none" stroke="#001026" stroke-width="1.2" stroke-linecap="round" stroke-linejoin="round"/><g><path d="M263.40001,151c2.9,4.5 3,9.6 0.2,11.4c-2.8,1.8 -7.4,-0.3 -10.4,-4.8c-2.9,-4.5 -3,-9.6 -0.2,-11.4c2.8,-1.9 7.5,0.3 10.4,4.8z" fill="#ffffff" stroke="#001026" stroke-width="1.2" stroke-linecap="round" stroke-linejoin="round"/><path d="M263.00001,156.70001c0,1.1 -0.8,2 -1.8,2c-1,0 -1.8,-0.9 -1.8,-2c0,-1.1 0.8,-2 1.8,-2c1,0 1.8,0.9 1.8,2" fill="#c92222" stroke="none" stroke-width="1" stroke-linecap="butt" stroke-linejoin="miter"/></g><g><path d="M238.60001,153.80001c3,4.4 2.8,9.8 0.1,11.7c-3.3,1.9 -7.7,0.5 -10.7,-3.9c-3.1,-4.4 -3.3,-10.1 -0.2,-12.3c3.1,-2.3 7.8,0.1 10.8,4.5z" fill="#ffffff" stroke="#001026" stroke-width="1.2" stroke-linecap="round" stroke-linejoin="round"/><path d="M238.00001,159.60001c0,1.1 -0.8,2 -1.8,2c-1,0 -1.8,-0.9 -1.8,-2c0,-1.1 0.8,-2 1.8,-2c1,0.1 1.8,0.9 1.8,2" fill="#c92222" stroke="none" stroke-width="1" stroke-linecap="butt" stroke-linejoin="miter"/></g></g><path d="M215.61022,131.67823c1.61544,-3.21748 4.01353,-5.40755 6.44865,-7.96774c1.96182,-2.06259 3.19984,-4.76891 7.16221,-3.32813c2.09412,0.76145 2.05569,4.09854 3.77332,5.51802c0.668,0.55205 1.6845,0.48863 2.42325,0.94164c0.44627,0.27366 0.6097,1.48307 1.03646,1.17989c0.87402,-0.62093 0.73341,-2.05217 1.38731,-2.9018c5.0517,-6.56385 11.30246,-9.19494 18.76915,-5.52259c6.00809,5.01855 6.54409,11.64733 10.23711,18.03687l0.58344,0.86448c0,0 0.01467,0.02201 0.03873,0.063c0.54475,-0.19563 1.08331,-0.40769 1.61378,-0.63715l1.38336,-0.85675c0,0 2.14373,-1.28624 3.42997,0.85749c1.28624,2.14373 -0.85749,3.42997 -0.85749,3.42997l-1.98624,1.16501c-1.75686,0.74694 -3.58205,1.34431 -5.43286,1.81229c-7.52222,1.85582 -14.68313,5.05 -22.47773,6.11269c-13.43302,1.83143 -26.36433,-0.88743 -39.32371,-3.73886c0,0 -2.44047,-0.54233 -1.89814,-2.98279c0.54233,-2.44047 2.98279,-1.89814 2.98279,-1.89814c2.32298,0.52077 4.64711,1.03765 6.97507,1.52197c1.01906,-3.90706 1.91281,-8.04692 3.73157,-11.66935z" fill="#bf5800" fill-rule="nonzero" stroke="none" stroke-width="0.5" stroke-linecap="butt" stroke-linejoin="miter"/><path d="M292.85904,197.27594l-1.01185,1.85678c-1.9091,2.20327 -2.43725,3.22087 -5.10314,4.62295c-4.17436,2.19544 -9.61346,1.5228 -14.35878,1.11879c-1.07925,1.08078 -2.17255,2.15334 -3.29745,3.21117c-2.86228,2.6916 -5.21842,5.4747 -9.40166,6.04015c-2.85924,0.38648 -7.17244,0.35991 -8.21546,-3.5394c-0.42881,-1.6031 0.94602,-3.18131 1.40107,-4.77715c1.1911,-4.17711 2.7108,-7.49182 4.94483,-11.27571c1.66451,-2.81926 3.03924,-3.90652 3.36889,-7.1097c0,0 0.27613,-2.20905 2.39184,-2.19739c0.73814,-0.66645 1.77366,-0.66645 1.77366,-0.66645c11.00071,0 21.84248,0.75176 32.81983,1.3005c2.64418,0.13218 11.2015,-1.36123 12.05231,2.91262c0.54088,2.71695 -3.58005,6.28997 -5.74757,7.29576c-3.18223,1.47666 -4.43976,0.72103 -7.89121,0.56512c-1.16258,-0.05252 -2.32839,-0.0788 -3.49592,-0.08872c-0.08043,0.43274 -0.2294,0.73067 -0.2294,0.73067zM282.35433,196.63132c-1.0145,0.12681 -2.03452,0.2168 -3.05637,0.27252l-0.72257,1.69576c-0.52508,0.52424 -1.04558,1.04947 -1.56347,1.57496c3.90186,0.14343 7.30226,-0.3556 10.40466,-3.59069c-1.6904,0.0249 -3.37933,0.05066 -5.06225,0.04745z" fill="#bfb9b4" fill-rule="nonzero" stroke="none" stroke-width="0.5" stroke-linecap="butt" stroke-linejoin="miter"/><path d="M245.03212,152.87034c0,1.25 -1.25,1.25 -1.25,1.25l-1.0075,-0.02427c-5.21635,-1.04424 -9.951,-4.61608 -15.38322,-4.54988c0,0 -1.25,0 -1.25,-1.25c0,-1.25 1.25,-1.25 1.25,-1.25c5.72404,0.05356 10.42992,3.51076 15.87351,4.59843l0.51721,-0.02427c0,0 1.25,0 1.25,1.25z" fill="#c72222" fill-rule="nonzero" stroke="none" stroke-width="0.5" stroke-linecap="butt" stroke-linejoin="miter"/><path d="M246.71003,152.61068c-0.88388,-0.88388 0,-1.76777 0,-1.76777l0.57169,-0.53736c4.44656,-2.9537 8.28161,-6.05035 13.09447,-8.46392c0,0 1.11803,-0.55902 1.67705,0.55902c0.55902,1.11803 -0.55902,1.67705 -0.55902,1.67705c-4.72373,2.35532 -8.46125,5.38656 -12.82575,8.30798l-0.19067,0.225c0,0 -0.88388,0.88388 -1.76777,0z" fill="#c72222" fill-rule="nonzero" stroke="none" stroke-width="0.5" stroke-linecap="butt" stroke-linejoin="miter"/><path d="M240.76849,183.4194c-0.29001,0.11816 -0.66897,0.1361 -1.11036,-0.15816c-1.04006,-0.69338 -0.34669,-1.73344 -0.34669,-1.73344c1.50519,-2.25612 3.41911,-5.78864 5.7607,-7.25561c6.67504,-4.18179 16.69318,0.31172 22.10764,4.42171l0.05979,0.21378l0.07221,-0.04814l0.75288,1.12932c0.1384,0.20119 0.21942,0.44493 0.21942,0.7076c0,0.69036 -0.55964,1.25 -1.25,1.25c-0.20995,0 -0.4078,-0.05176 -0.58151,-0.14321l-1.3965,-0.69825c-6.1507,-0.87659 -12.85918,-1.64102 -18.48118,0.7346c-1.47033,0.6213 -2.67388,0.50333 -4.00529,1.42164l-1.45573,0.20994c0,0 -0.14964,0 -0.34537,-0.05177zM243.15184,180.08886c4.84725,-2.27217 10.55813,-2.17353 15.87747,-2.16712c0.59923,0.00072 1.41712,-0.02881 2.28486,-0.01357c-4.68753,-2.43087 -10.7536,-4.11108 -15.01027,-1.46047c-1.16013,0.72241 -2.21967,2.17909 -3.15205,3.64117z" fill="#000000" fill-rule="nonzero" stroke="none" stroke-width="0.5" stroke-linecap="butt" stroke-linejoin="miter"/><path d="M241.46954,153.83604c0.55901,1.11803 -0.55902,1.67705 -0.55902,1.67705l-0.28131,-0.04348c-0.63233,0.91836 -1.43448,2.02844 -2.28012,3.10345c1.06461,0.84892 1.99226,1.77285 2.6613,2.75221l-0.27771,-0.55662c0,0 1.25,0 1.25,1.25c0,1.25 -1.25,1.25 -1.25,1.25l-1.80242,-0.55662c-0.50916,-0.78987 -1.26702,-1.54829 -2.15642,-2.2536c-0.3063,0.34058 -0.60821,0.65862 -0.89983,0.94358c-0.23937,0.23389 -0.75141,0.14446 -0.90046,0.44412c-0.41211,0.8285 -0.05105,1.86387 -0.2706,2.76278c0,0 -0.30317,1.21268 -1.51585,0.90951c-1.21268,-0.30317 -0.90951,-1.51585 -0.90951,-1.51585c0.27982,-1.08866 -0.01197,-2.33124 0.49176,-3.33609c0.26261,-0.52385 0.97665,-0.6619 1.38662,-1.0806c0.17298,-0.17666 0.35135,-0.36472 0.53323,-0.56184c-1.60728,-0.97473 -3.33182,-1.77811 -4.71261,-2.32483c0,0 -1.1606,-0.46424 -0.69636,-1.62483c0.46424,-1.1606 1.62483,-0.69636 1.62483,-0.69636c1.66842,0.67334 3.61395,1.61477 5.41177,2.75588c0.8463,-1.04518 1.65023,-2.13599 2.23224,-3.05102l1.2434,-0.80584c0,0 1.11804,-0.55902 1.67705,0.55902z" fill="#000000" fill-rule="nonzero" stroke="none" stroke-width="0.5" stroke-linecap="butt" stroke-linejoin="miter"/><path d="M264.7611,150.15976c1.18585,0.39528 0.79057,1.58114 0.79057,1.58114l-0.52697,1.44163c-0.80175,1.19778 -1.68602,2.58793 -2.46553,4.02965c0.69366,0.50857 1.39828,1.00399 2.11884,1.47932l0.57169,0.53736c0,0 0.88388,0.88388 0,1.76777c-0.88388,0.88388 -1.76777,0 -1.76777,0l-0.19067,-0.225c-0.62285,-0.4189 -1.23373,-0.85026 -1.83599,-1.29024c-0.3556,0.8357 -0.64474,1.6643 -0.83211,2.45925c0,0 -0.30317,1.21268 -1.51585,0.90951c-1.21268,-0.30317 -0.90951,-1.51585 -0.90951,-1.51585c0.28745,-1.10156 0.71867,-2.24229 1.23592,-3.37815c-1.92177,-1.48823 -3.79203,-3.02214 -5.72858,-4.46699c0,0 -1,-0.75 -0.25,-1.75c0.75,-1 1.75,-0.25 1.75,-0.25c1.80637,1.36274 3.56253,2.81026 5.362,4.21237c0.75596,-1.38357 1.58574,-2.71392 2.37743,-3.90574l0.23539,-0.84545c0,0 0.39528,-1.18585 1.58114,-0.79057z" fill="#000000" fill-rule="nonzero" stroke="none" stroke-width="0.5" stroke-linecap="butt" stroke-linejoin="miter"/></g></g></svg>